<svg width="109" height="139" viewBox="0 0 109 139" fill="none" xmlns="http://www.w3.org/2000/svg">
<path d="M31.97 119.54L29.19 130.313H50.735V133.44H21.8925L26.7575 119.54H31.97Z" fill="#202020"/>
<path d="M37.8775 88.6125L33.36 100.08H37.8775L41.3525 88.6125H37.8775Z" fill="#202020"/>
<path d="M45.175 92.435V94.52H63.5925V92.435H45.175Z" fill="#202020"/>
<path d="M74.365 100.08L70.195 88.6125H66.3725L70.195 100.08H74.365Z" fill="#202020"/>
<path d="M76.7975 119.54H80.9675L85.485 133.44H58.0325V130.313H78.535L76.7975 119.54Z" fill="#202020"/>
<path d="M43.09 124.058V126.838H70.195V124.058H43.09Z" fill="#202020"/>
<path d="M31.97 88.6125L8.6875 139H98.69L76.7975 88.6125H73.3225L92.0875 135.873H15.6375L34.75 88.6125H31.97Z" fill="#202020"/>
<path d="M64.4446 109.437L57.3107 109.385C57.7675 108.724 58.2843 108.269 58.8612 108.02C59.4374 107.783 60.1715 107.668 61.0633 107.674C62.0091 107.681 62.7872 107.838 63.3974 108.144C64.0079 108.45 64.3571 108.881 64.4446 109.437Z" fill="#202020"/>
<path d="M45.2524 112.048C44.6697 111.73 44.3344 111.287 44.2472 110.719L51.5837 110.773C51.0995 111.445 50.5555 111.906 49.9518 112.155C49.3745 112.417 48.6266 112.544 47.7076 112.537C46.6807 112.53 45.8625 112.367 45.2524 112.048Z" fill="#202020"/>
<path fill-rule="evenodd" clip-rule="evenodd" d="M54.21 119.54C67.2606 119.54 77.84 115.184 77.84 109.81C77.84 104.436 67.2606 100.08 54.21 100.08C41.1594 100.08 30.58 104.436 30.58 109.81C30.58 115.184 41.1594 119.54 54.21 119.54ZM40.2472 109.242L36.194 109.212L36.14 110.678L40.1529 110.707C40.3259 111.879 41.1021 112.827 42.4809 113.549C43.8593 114.283 45.643 114.658 47.8318 114.674C50.0207 114.69 51.7884 114.39 53.1356 113.772C54.4825 113.166 55.5728 112.178 56.407 110.809L64.1083 110.865C63.6716 111.719 62.7767 112.533 61.4237 113.308L65.1966 114.349C66.9362 113.348 68.0055 112.203 68.4042 110.915L70.836 110.932L70.89 109.466L68.5389 109.449C68.3652 108.301 67.5887 107.366 66.2096 106.644C64.8576 105.922 63.1008 105.553 60.9391 105.537C58.6963 105.521 56.9153 105.809 55.5959 106.403C54.3033 107.009 53.2401 107.991 52.4063 109.349L44.462 109.291C44.8513 108.255 46.0522 107.202 48.0649 106.131L44.4189 104.945C42.1025 106.195 40.7121 107.628 40.2472 109.242Z" fill="#202020"/>
<path fill-rule="evenodd" clip-rule="evenodd" d="M0 59.77V101.47H7.9925V87.9175H14.2475V101.47H26.0289L31.97 88.6125H34.75H37.8775H41.3525H66.3725H70.195H73.3225H76.7975L82.3839 101.47H94.1725V87.9175H100.427V101.47H108.073V59.77H79.23V51.7775H73.67V40.31H77.4925V34.055H73.67C72.6275 23.9775 70.195 18.4175 59.075 13.205V6.255H56.6425V0H52.125V6.255H49.345V13.205C40.31 17.375 36.4875 21.8925 34.75 34.055H31.275V40.31H34.75V51.7775H28.495V59.77H0ZM39.9625 39.9625H46.2175V51.7775H39.9625V39.9625ZM57.3375 39.9625H51.0825V51.7775H57.3375V39.9625ZM62.2025 39.9625H68.4575V51.7775H62.2025V39.9625ZM14.2475 74.0175H7.9925V79.5775H14.2475V74.0175ZM20.5025 74.0175H26.7575V79.5775H20.5025V74.0175ZM63.5925 74.0175H57.3375V79.5775H63.5925V74.0175ZM33.0125 74.0175H39.2675V79.5775H33.0125V74.0175ZM75.4075 74.0175H69.1525V79.5775H75.4075V74.0175ZM44.8275 74.0175H51.0825V79.5775H44.8275V74.0175ZM87.9175 74.0175H81.6625V79.5775H87.9175V74.0175ZM94.1725 74.0175H100.427V79.5775H94.1725V74.0175Z" fill="#202020"/>
</svg>
