<svg width="139" height="138" viewBox="0 0 139 138" fill="none" xmlns="http://www.w3.org/2000/svg">
<path fill-rule="evenodd" clip-rule="evenodd" d="M0 46.8466V137.675H13.8964V125.211H23.9247V137.675H37.6779V46.8466H32.5205V37.1048H21.0595V28.6523H16.4751V37.1048H5.15743V46.8466H0ZM28.2227 110.598H9.59866V115.469H28.2227V110.598ZM9.59866 83.0919H28.2227V87.9628H9.59866V83.0919ZM28.2227 101.429H9.59866V106.3H28.2227V101.429ZM9.59866 73.9231H28.2227V78.794H9.59866V73.9231ZM28.2227 92.2606H9.59866V97.1315H28.2227V92.2606ZM9.59866 64.7543H28.2227V69.6252H9.59866V64.7543ZM28.2227 55.5855H9.59866V60.4565H28.2227V55.5855Z" fill="#202020"/>
<path fill-rule="evenodd" clip-rule="evenodd" d="M42.2622 137.675V71.6722H47.2039V64.5931H58.0483V55.8722H62.4409V64.5931H73.4225V71.6722H78.3642V137.675H65.1863V128.618H55.5774V137.675H42.2622ZM50.8581 83.0919H58.0212V88.2493H50.8581V83.0919ZM58.0212 92.5472H50.8581V97.7046H58.0212V92.5472ZM50.8581 102.002H58.0212V107.16H50.8581V102.002ZM58.0212 111.458H50.8581V116.615H58.0212V111.458ZM62.0324 83.0919H69.1955V88.2493H62.0324V83.0919ZM69.1955 92.5472H62.0324V97.7046H69.1955V92.5472ZM62.0324 102.002H69.1955V107.16H62.0324V102.002ZM69.1955 111.458H62.0324V116.615H69.1955V111.458Z" fill="#202020"/>
<path d="M93.1971 0C93.2414 0.0023255 93.2857 0.0047106 93.33 0.00715521C94.4401 0.647564 102.264 5.49803 107.88 17.9896C103.043 19.3035 97.873 20.396 93.1971 20.7377V0Z" fill="#202020"/>
<path d="M87.4274 0.0359771C86.15 0.783667 78.4408 5.68601 72.9 18.0508C77.8057 19.3707 83.0409 20.4564 87.7532 20.7624V0.0158767C87.6445 0.0222187 87.5359 0.0289193 87.4274 0.0359771Z" fill="#202020"/>
<path d="M57.5319 12.9991C63.4482 7.46033 70.7555 3.38928 78.8732 1.36675C75.6629 3.23578 70.7285 7.38874 66.9679 16.3079C63.1461 15.0962 59.8243 13.8803 57.5319 12.9991Z" fill="#202020"/>
<path d="M65.0706 21.5942C58.7636 19.8658 54.2299 18.27 54.2299 18.27L53.2936 17.7645C46.5096 25.4853 43.0801 34.0255 42.3161 44.9167H61.7225C61.9689 35.2195 63.2543 27.5904 65.0706 21.5942Z" fill="#202020"/>
<path d="M70.924 23.0925C68.9301 28.963 67.4845 36.1615 67.1821 44.9167H87.7532V25.7918C82.4018 25.5045 76.3758 24.3842 70.924 23.0925Z" fill="#202020"/>
<path d="M83.2096 72.4998V69.1955H78.3387V60.7797H67.9426C67.4986 57.5715 67.2175 54.1042 67.1432 50.3607H87.7532V72.204C84.7536 72.365 86.3613 72.3473 83.2096 72.4998Z" fill="#202020"/>
<path d="M82.923 95.2069L82.923 76.7884C86.1265 76.1025 84.7536 75.5918 87.7532 75.3969V96.6942C87.6445 96.6879 87.5359 96.6812 87.4274 96.6741C86.2181 96.5954 86.3613 96.6741 82.923 95.2069Z" fill="#202020"/>
<path d="M78.3387 95.2069V95.0203C78.5216 95.1349 78.6999 95.2424 78.8732 95.3433C78.6946 95.2988 78.5164 95.2533 78.3387 95.2069Z" fill="#202020"/>
<path d="M109.863 23.0339C104.481 24.3203 98.519 25.4479 93.1971 25.7706V44.9167H113.625C113.322 36.1323 111.867 28.9151 109.863 23.0339Z" fill="#202020"/>
<path d="M115.715 21.5244C117.543 27.5312 118.837 35.1818 119.085 44.9167H138.921C138.13 33.6469 135.269 25.4523 128.076 17.6212L127.503 17.9077C127.503 17.9077 121.881 19.8231 115.715 21.5244Z" fill="#202020"/>
<path d="M113.664 50.3607H93.1971V71.3693C98.474 71.6892 104.38 72.8005 109.726 74.0733C111.91 67.8073 113.473 59.9993 113.664 50.3607Z" fill="#202020"/>
<path d="M119.113 50.3607C118.958 61.0014 117.575 69.2282 115.593 75.5818C121.823 77.2962 126.291 78.8698 126.291 78.8698L127.217 79.3671C134.713 71.2055 138.518 62.1974 139 50.3607H119.113Z" fill="#202020"/>
<path d="M107.706 79.1031C102.919 77.8103 97.817 76.7397 93.1971 76.4021V96.7101C93.2414 96.7078 93.2857 96.7054 93.33 96.7029C94.4286 96.0691 102.103 91.3113 107.706 79.1031Z" fill="#202020"/>
<path d="M113.645 80.8548C109.784 89.7542 104.761 93.7751 101.619 95.5226C109.788 93.6248 117.165 89.6593 123.166 84.2075C120.887 83.327 117.527 82.0899 113.645 80.8548Z" fill="#202020"/>
<path d="M113.808 16.2334C109.925 7.06934 104.805 2.95958 101.619 1.18748C109.938 3.12012 117.436 7.19719 123.496 12.8046C121.248 13.679 117.811 14.9546 113.808 16.2334Z" fill="#202020"/>
<path d="M42.2367 50.3607H61.6939C61.6999 50.7688 61.7076 51.1733 61.7171 51.5743H61.5307H53.4111V60.7797H45.4472H43.2395C41.3686 55.9484 42.4582 55.7981 42.2367 50.3607Z" fill="#202020"/>
</svg>
