<svg width="134" height="135" viewBox="0 0 134 135" fill="none" xmlns="http://www.w3.org/2000/svg">
<path d="M126.662 77.6054C129.114 64.4629 127.206 50.8789 121.229 38.9203C115.251 26.9616 105.531 17.2829 93.5463 11.3567C81.5621 5.43047 67.9701 3.58112 54.8382 6.09003C41.7063 8.59893 29.7533 15.3287 20.7979 25.2556C11.8425 35.1824 6.37477 47.7628 5.22669 61.0829C4.07861 74.4029 7.31298 87.7334 14.4377 99.0462C21.5625 110.359 32.1876 119.035 44.6965 123.754C57.2054 128.473 70.9134 128.976 83.7349 125.188" stroke="#202020" stroke-width="10"/>
<mask id="mask0" mask-type="alpha" maskUnits="userSpaceOnUse" x="5" y="5" width="123" height="123">
<circle cx="66.3513" cy="66.3515" r="61.3513" fill="#202020"/>
</mask>
<g mask="url(#mask0)">
<path d="M13.3788 33.3785C13.3788 33.3785 14.1954 39.0732 13.3788 42.5676C12.5464 46.1298 10.7027 47.6154 9.18962 50.946C7.23999 55.2376 4.51501 57.4534 4.73016 62.1622C4.88945 65.6484 5.36437 68.0791 7.83827 70.5406C11.1843 73.8698 15.3255 71.0057 19.7301 72.7027C24.3342 74.4766 27.6741 75.3508 30.4058 79.4595C32.1614 82.0999 32.9734 84.1013 32.9734 87.1622C32.9734 90.0647 30.4058 91.8272 30.4058 94.7297C30.4058 98.2128 31.6991 100.415 30.4058 103.649C29.6176 105.62 28.7529 106.563 27.2977 108.108C24.8893 110.666 19.7301 112.973 19.7301 112.973L3.91935 77.4324L2.1626 49.3244L13.3788 33.3785Z" fill="#202020"/>
<path d="M39.595 124.865C39.595 124.865 44.9077 118.86 49.3247 116.486C53.9034 114.026 56.9988 112.379 62.1625 112.973C67.2048 113.553 69.7588 115.794 73.649 119.054C77.01 121.871 80.8111 127.703 80.8111 127.703H64.1895L39.595 124.865Z" fill="#202020"/>
<path d="M90.676 5.27039C90.676 5.27039 81.6141 8.63975 79.0544 13.5136C76.8705 17.6719 78.9917 22.2532 78.2436 23.1082C77.2976 24.1893 69.744 23.2009 66.4868 26.0812C63.6614 28.5797 64.1895 33.3785 64.1895 33.3785C64.1895 33.3785 60.2579 34.6146 59.4598 37.2974C58.9934 38.8654 58.7469 41.4456 60.1355 42.973C61.4868 44.4595 80.0032 43.2433 81.3517 45.1352C82.4066 46.6152 83.6161 48.0504 83.5138 49.8649C83.3089 53.5032 73.5139 51.2163 70.1355 50.4055C63.436 48.7976 60.9971 48.0549 55.5409 48.7838C52.8512 49.1432 51.5752 49.7045 49.3247 50.946C45.8605 52.8569 43.5226 54.3102 42.0274 57.973C40.6313 61.3932 41.249 63.8213 42.0274 67.4325C42.8088 71.0573 43.2452 73.5407 45.9463 76.0811C48.4451 78.4312 50.672 78.8882 54.0544 79.4595C56.5522 79.8813 57.4672 79.8649 60.0004 79.8649C61.622 79.8649 65.4058 81.4865 65.4058 84.0541C65.4058 85.975 64.3673 86.5982 65.4058 88.3784C66.3517 90 67.677 90.5088 67.4328 93.3784C66.8922 99.7297 68.4289 108.731 75.1355 110.27C76.9358 110.683 78.2915 110.784 79.4598 110.27C82.8382 108.784 87.5679 103.649 87.5679 103.649C87.5679 103.649 84.0184 104.807 82.1625 101.351C80.0907 97.4935 75.7635 90.562 80.2706 85.946C82.8838 83.2696 86.1998 82.7898 88.2436 80.4054C89.8652 78.5135 90.2377 76.6224 92.2976 75.2703C93.8791 74.2322 97.2976 74.1892 97.2976 74.1892V69.0541C97.2976 69.0541 95.676 69.0541 93.3787 66.7568C91.7239 65.102 91.7571 62.1622 91.7571 62.1622C96.0814 64.3244 98.1084 64.8649 101.487 63.1081C102.973 62.3351 102.973 60.8301 102.973 59.0875V59.0541C102.973 57.2973 99.8073 55.2703 101.892 53.6487C103.977 52.0271 106.217 54.5946 106.217 54.5946C106.217 54.5946 108.893 56.5303 110.946 56.0811C115.271 55.1352 117.004 53.767 120.811 54.5946C123.919 55.2703 129.054 52.973 129.054 52.973L110.406 18.1082L90.676 5.27039Z" fill="#202020"/>
</g>
<path d="M110.811 109.324C110.811 109.324 104.212 102.432 106.351 94.4594C108.491 86.4864 111.892 80.6756 118.919 80.1352L112.432 75.6758C112.432 75.6758 110 67.8378 102.703 68.6487C101.359 68.798 101.892 69.5946 101.892 71.2163C101.892 72.9579 101.892 75.6758 101.892 75.6758C101.892 75.6758 95.8917 77.2 93.7838 80.1352C92.9301 81.3239 92.1621 83.5136 92.1621 83.5136C92.1621 83.5136 83.1718 88.3933 82.7027 90.2704C82.2974 91.892 83.329 97.2834 86.6216 99.1893C88.6487 100.363 96.7567 97.7028 96.7567 97.7028H99.7297L96.7567 102.838L93.7838 109.324H110.811Z" fill="#202020"/>
<path d="M92.4054 114.46C91.3008 114.46 90.4054 115.355 90.4054 116.46V122.054C90.4054 123.159 91.3008 124.054 92.4054 124.054H122.73C123.834 124.054 124.73 123.159 124.73 122.054V115.811C121.351 116.216 119.324 115.676 117.162 114.46H92.4054Z" fill="#202020"/>
<path d="M86.6216 127.027C86.6216 131.43 90.1912 135 94.5946 135H120.135C124.538 135 128.108 131.43 128.108 127.027L127.105 127.629C125.551 128.562 123.772 129.054 121.96 129.054H92.9152C91.2676 129.054 89.6454 128.647 88.193 127.869L86.6216 127.027Z" fill="#202020"/>
<path fill-rule="evenodd" clip-rule="evenodd" d="M116.98 84.865C118.258 84.9973 119.512 85.9249 120.358 86.8921C122.25 89.0542 118.94 93.0662 120.899 95.9461C122.044 97.6305 122.781 98.1083 124.818 98.1083C126.304 98.1083 128.462 95.2703 131.304 97.2975C132.329 98.0285 133.824 100.009 133.466 101.216C132.385 104.865 129.256 108.113 125.899 109.595C122.166 111.242 117.327 110.48 114.007 108.108C111.087 106.022 109.358 103.015 108.872 99.4596C108.147 94.1663 111.98 84.3476 116.98 84.865ZM114.548 102.432C110.088 94.4595 116.575 89.3243 116.575 89.3243C116.575 89.3243 115.362 94.2502 116.575 96.8919C117.837 99.6407 119.748 101.195 122.656 102.027C125.16 102.744 129.277 101.216 129.277 101.216C129.277 101.216 126.98 106.486 121.575 106.486C118.246 106.486 116.172 105.337 114.548 102.432Z" fill="#202020"/>
</svg>
