<svg width="198" height="59" viewBox="0 0 198 59" fill="none" xmlns="http://www.w3.org/2000/svg">
<path d="M29.5819 0C13.2454 0 0 13.2022 0 29.4962C0 45.7854 13.2454 59 29.5819 59C45.9182 59 59.1714 45.7854 59.1714 29.4962C59.1714 13.202 45.9182 0 29.5819 0ZM70.9631 2.11234L66.506 24.333C66.2373 25.633 66.0126 26.981 66.0126 28.3304C66.0126 32.2305 68.6209 34.478 73.8409 34.478C83.7481 34.478 88.4268 26.3121 88.4268 19.1773C88.4268 15.2675 86.3606 11.5308 81.7679 11.5308C79.0706 11.5308 76.5969 12.7 74.9797 14.6347H74.8811L77.493 2.11234H70.9631ZM99.019 2.48326C97.0334 2.48326 95.3229 3.95456 95.2832 6.14757C95.2781 8.08258 96.6303 9.29707 98.4268 9.29707C100.502 9.29707 102.254 7.9503 102.254 5.66304C102.254 3.73288 100.9 2.48326 99.019 2.48326ZM170.719 2.48326C168.748 2.48326 167.023 3.95456 166.983 6.14757C166.978 8.08258 168.338 9.29707 170.134 9.29707C172.204 9.29707 173.961 7.9503 173.961 5.66304C173.961 3.73288 172.615 2.48326 170.719 2.48326ZM114.592 5.89029L107.986 7.41198L107.082 12.0301H104.25L103.354 16.9285H106.141L104.425 25.6805C104.112 27.3376 103.977 28.5507 103.977 29.7613C103.977 32.5052 105.833 34.478 109.694 34.478C111.083 34.478 112.7 34.2958 113.521 33.9785L114.28 28.9061C113.688 28.9952 113.061 28.9969 112.488 28.9969C111.085 28.9969 110.628 28.2437 110.628 27.1571C110.628 26.403 110.818 25.2791 110.993 24.371L112.488 16.9288H117.158L118.1 12.0303H113.422L114.592 5.89029ZM27.0458 11.523L31.3661 12.3407L30.5764 16.5198L33.3556 17.0422L34.1452 12.8555L38.4655 13.6579L37.6226 18.1399C38.2395 18.3829 38.8045 18.6322 39.2476 18.9348C40.4069 19.704 41.2531 20.6217 41.761 21.7134C42.2634 22.8048 42.3946 23.9313 42.1711 25.0823C42.0166 25.9158 41.6866 26.6842 41.1841 27.3839C40.6863 28.0637 40.039 28.6357 39.2479 29.0873C38.4616 29.5338 37.4735 29.8446 36.2943 30.0183C37.4236 30.5392 38.2833 31.0463 38.8455 31.5325C39.6614 32.2172 40.254 33.0644 40.6221 34.0914C40.9851 35.1036 41.0588 36.1729 40.85 37.3089C40.5961 38.6637 39.954 39.8314 38.9291 40.7991C37.8989 41.7965 36.5752 42.4523 34.9733 42.76C34.3809 42.8642 33.71 42.9318 32.9687 42.9417L32.1108 47.4767L27.7905 46.6818L28.5802 42.4877C28.4706 42.453 28.3707 42.447 28.2614 42.4271L25.7937 41.9729L25.0116 46.1595L20.6913 45.3571L21.4734 41.1629L14.8828 39.9288L15.5435 36.4084L16.5533 36.5976C17.2251 36.7316 17.6865 36.7629 17.9503 36.6732C18.214 36.6037 18.403 36.468 18.5427 36.2795C18.687 36.086 18.8258 35.6133 18.9604 34.879L21.618 20.6912C21.7623 19.947 21.8066 19.4508 21.747 19.2226C21.6873 18.9944 21.5483 18.7935 21.3294 18.6397C21.1204 18.466 20.6724 18.3121 20.0005 18.2082L18.9908 18.0037L19.6514 14.4833L26.2496 15.7249L27.0458 11.523ZM132.655 11.5303C124.271 11.5303 118.297 17.6362 118.297 25.4608C118.297 31.1519 122.124 34.44 127.568 34.44C130.176 34.44 132.431 33.9794 133.825 33.3195L133.779 28.3605C132.654 28.8169 131.299 29.2615 129.413 29.2615C126.985 29.2615 125.1 27.7311 125.1 24.734C125.1 20.6009 127.926 16.7013 132.564 16.7013C133.868 16.7013 134.764 16.9285 135.54 17.2314L137.112 12.3027C136.172 11.8956 134.541 11.5303 132.655 11.5303ZM150.628 11.5303C142.796 11.5303 137.484 17.7767 137.484 25.4077C137.484 30.8508 141.217 34.4778 146.801 34.4778C154.459 34.4778 159.944 28.5826 159.944 20.5548C159.944 15.5684 156.529 11.5303 150.628 11.5303ZM190.946 11.5303C188.02 11.5303 185.281 12.7887 183.201 15.6564H183.11L183.558 12.0299H177.803C177.519 13.9748 177.163 16.3907 176.626 19.1693L173.831 33.963H180.308L182.161 24.2342C183.057 19.3866 185.544 16.7313 187.658 16.7313C189.281 16.7313 189.822 17.8174 189.822 19.3357C189.822 20.1396 189.726 21.0423 189.602 21.8115L187.301 33.963H193.786L196.215 21.2211C196.4 20.1444 196.573 18.4812 196.573 17.5037C196.573 13.7231 194.544 11.5303 190.946 11.5303ZM94.3874 12.0224L90.2037 33.978H96.6803L100.864 12.0224H94.3874ZM166.072 12.0224L161.888 33.978H168.372L172.556 12.0224H166.072ZM149.77 16.4287C152.382 16.4287 153.24 18.5811 153.24 20.6004C153.24 24.3662 151.27 29.5418 147.712 29.5418C145.458 29.5418 144.189 27.8297 144.189 25.2793C144.149 21.8655 146.038 16.4287 149.77 16.4287ZM78.746 16.7466C80.7214 16.7466 81.616 18.4032 81.616 20.5168C81.616 24.3672 78.9219 29.5793 75.1848 29.5793C73.692 29.5793 72.7543 28.7244 72.7094 27.1567C72.6647 26.2239 72.8401 25.4637 72.9295 24.749L73.3396 22.9395C74.1108 19.1191 76.4021 16.7466 78.746 16.7466ZM28.2152 20.3201L27.0536 26.5207L29.8553 27.0508C31.3131 27.3187 32.4218 27.3921 33.1733 27.278C33.9195 27.1739 34.5046 26.9023 34.9577 26.4756C35.3904 26.0589 35.6886 25.5131 35.8081 24.8631C35.9374 24.1932 35.8796 23.597 35.6259 23.0611C35.387 22.5351 34.9648 22.1165 34.3578 21.7742C33.7654 21.4616 32.6589 21.1457 31.0169 20.8429L28.2152 20.3201ZM26.355 30.2836L25.3299 35.7877C25.2053 36.5567 25.1404 37.0364 25.1552 37.1658C25.1849 37.3494 25.266 37.4902 25.3907 37.5747C25.525 37.6639 25.8922 37.7811 26.5144 37.8851L28.3746 38.2409C29.4641 38.4345 30.3794 38.5074 31.1309 38.4377C31.8822 38.3681 32.5664 38.0624 33.1886 37.5216C33.8007 36.9756 34.1914 36.272 34.3656 35.379C34.4949 34.6297 34.4446 33.9632 34.1909 33.3728C33.927 32.7872 33.4809 32.286 32.8242 31.8889C32.1672 31.4918 31.1183 31.1698 29.6655 30.897L26.355 30.2836ZM146.178 37.3625V43.0558H146.133C145.65 42.3261 144.64 41.8672 143.346 41.8672C140.818 41.8672 138.596 43.9045 138.615 47.4622C138.615 50.727 140.625 52.8677 143.133 52.8677C144.487 52.8677 145.76 52.2618 146.436 51.081H146.482L146.626 52.6329H149.542C149.492 51.9185 149.451 50.6718 149.451 49.4909V37.3625H146.178ZM156.459 37.3625V52.6329H159.747V46.387C159.747 46.1438 159.768 45.8683 159.853 45.6602C160.092 45.0846 160.635 44.5244 161.501 44.5244C162.73 44.5244 163.201 45.4642 163.201 46.8488V52.6329H166.482V46.4854C166.482 43.3199 164.891 41.8747 162.791 41.8747C162.189 41.8747 161.565 42.0206 161.083 42.2837C160.565 42.5613 160.138 42.9121 159.785 43.3589H159.747V37.3627H156.459V37.3625ZM123.673 39.1037L120.454 39.823V42.1095H119.056V44.5172H120.454V48.8099C120.454 50.3033 120.755 51.314 121.357 51.9444C121.875 52.4701 122.76 52.8529 123.825 52.8529C124.75 52.8529 125.531 52.7436 125.958 52.5651L125.935 50.0893C125.702 50.1291 125.379 50.1727 124.971 50.1727C123.981 50.1727 123.673 49.5954 123.673 48.3254V44.5172H126.034V42.1095H123.673V39.1037H123.673ZM69.4295 41.867C67.5088 41.867 66.0607 42.3864 65.3293 42.7983L65.9292 44.9106C66.621 44.4738 67.77 44.1157 68.8449 44.1157C70.467 44.1157 70.7658 44.9077 70.7658 45.4632V45.6222C67.0338 45.5924 64.57 46.911 64.57 49.6499C64.57 51.3269 65.8396 52.8674 67.9792 52.8674C69.2281 52.8674 70.3093 52.4113 71.0013 51.5728H71.0693L71.2593 52.6327H74.2207C74.1159 52.0522 74.0763 51.0807 74.0763 50.0586V46.4095C74.0763 43.9335 72.9472 41.867 69.4295 41.867ZM82.1093 41.867C78.1782 41.867 76.0656 44.3856 76.0656 47.4619C76.0656 50.7713 78.2453 52.8449 81.6539 52.8449C82.9077 52.8449 84.01 52.6259 84.5924 52.3679L84.1974 49.9602C83.6998 50.1538 83.0984 50.2706 82.3219 50.2706C80.7248 50.2706 79.429 49.2656 79.429 47.3255C79.4042 45.6137 80.537 44.388 82.2536 44.388C83.1193 44.388 83.7032 44.5247 84.091 44.6984L84.6073 42.2757C83.9206 42.0077 82.9704 41.867 82.1093 41.867ZM91.608 41.867C87.677 41.867 85.5641 44.3856 85.5641 47.4619C85.5641 50.7713 87.7465 52.8449 91.16 52.8449C92.4091 52.8449 93.5163 52.6259 94.0985 52.3679L93.7112 49.9602C93.2136 50.1538 92.6096 50.2706 91.8282 50.2706C90.236 50.2706 88.9353 49.2656 88.9353 47.3255C88.9106 45.6137 90.0382 44.388 91.7599 44.388C92.621 44.388 93.2019 44.5247 93.5897 44.6984L94.1136 42.2757C93.4221 42.0077 92.4742 41.867 91.608 41.867ZM100.408 41.867C96.736 41.867 95.0779 44.8125 95.0779 47.477C95.0779 50.7665 97.1342 52.8447 100.712 52.8447C102.14 52.8447 103.452 52.6225 104.531 52.1859L104.106 49.9752C103.22 50.2631 102.31 50.4067 101.19 50.4067C99.6577 50.4067 98.3187 49.77 98.214 48.4155H105.002C105.052 48.1723 105.116 47.6887 105.116 47.1133C105.116 44.5288 103.812 41.867 100.408 41.867ZM113.559 41.867C112.032 41.867 110.812 42.4441 110.036 43.5704H109.998L109.854 42.1093H106.999C107.039 43.0667 107.09 44.2579 107.09 45.6372V56.8877H110.37V51.6639H110.408C110.891 52.3534 111.875 52.8677 113.149 52.8677C115.503 52.8677 117.94 51.0625 117.94 47.2274C117.94 43.8681 115.868 41.867 113.559 41.867ZM132.549 41.867C128.887 41.867 127.219 44.8125 127.219 47.477C127.219 50.7665 129.275 52.8447 132.853 52.8447C134.281 52.8447 135.592 52.6225 136.672 52.1859L136.239 49.9752C135.354 50.2631 134.451 50.4067 133.331 50.4067C131.794 50.4067 130.464 49.77 130.355 48.4155H137.143C137.183 48.1723 137.249 47.6887 137.249 47.1133C137.249 44.5288 135.958 41.867 132.549 41.867ZM173.854 41.867C170.182 41.867 168.524 44.8125 168.524 47.477C168.524 50.7665 170.575 52.8447 174.158 52.8447C175.586 52.8447 176.9 52.6225 177.985 52.1859L177.545 49.9752C176.664 50.2631 175.756 50.4067 174.636 50.4067C173.099 50.4067 171.762 49.77 171.653 48.4155H178.448C178.488 48.1723 178.555 47.6887 178.555 47.1133C178.554 44.5288 177.258 41.867 173.854 41.867ZM193.292 41.867C189.63 41.867 187.962 44.8125 187.962 47.477C187.962 50.7665 190.018 52.8447 193.596 52.8447C195.024 52.8447 196.343 52.6225 197.423 52.1859L196.99 49.9752C196.104 50.2631 195.199 50.4067 194.074 50.4067C192.542 50.4067 191.207 49.77 191.098 48.4155H197.886C197.936 48.1723 198 47.6887 198 47.1133C198 44.5288 196.701 41.867 193.292 41.867ZM186.314 41.8818C185.304 41.8818 184.012 42.5267 183.474 44.0547H183.376L183.269 42.109H180.452C180.492 43.0124 180.528 44.0334 180.528 45.5764V52.6324H183.808V47.295C183.808 47.0372 183.832 46.7817 183.876 46.5682C184.091 45.5514 184.913 44.9101 186.116 44.9101C186.485 44.9101 186.774 44.9612 187.013 45.001V41.9196C186.779 41.875 186.623 41.882 186.314 41.8818ZM100.211 44.0394C101.714 44.0394 102.071 45.3758 102.071 46.1743H98.1836C98.2682 45.2815 98.8275 44.0394 100.211 44.0394ZM132.352 44.0394C133.87 44.0394 134.22 45.3758 134.22 46.1743H130.325C130.419 45.2815 130.974 44.0394 132.352 44.0394ZM173.657 44.0394C175.17 44.0394 175.517 45.3758 175.517 46.1743H171.63C171.714 45.2815 172.279 44.0394 173.657 44.0394ZM193.095 44.0394C194.603 44.0394 194.955 45.3758 194.955 46.1743H191.068C191.157 45.2815 191.707 44.0394 193.095 44.0394ZM144.212 44.3575C145.222 44.3575 145.939 45.0872 146.133 45.9701C146.153 46.1338 146.179 46.3717 146.179 46.5454V47.9385C146.179 48.2215 146.16 48.455 146.095 48.6881C145.901 49.616 145.144 50.2553 144.189 50.2553C142.836 50.2553 141.942 49.1319 141.942 47.3556C141.942 45.6985 142.714 44.3575 144.212 44.3575H144.212ZM112.398 44.4331C113.87 44.4331 114.615 45.7011 114.615 47.3781C114.615 49.1598 113.77 50.3609 112.352 50.3609C111.402 50.3609 110.645 49.6872 110.431 48.809C110.392 48.6057 110.37 48.3804 110.37 48.1124V46.6663C110.37 46.4781 110.391 46.2622 110.431 46.0834C110.645 45.1211 111.467 44.4331 112.398 44.4331ZM70.872 47.6584L70.8793 48.8017C70.8793 48.9953 70.8557 49.1934 70.811 49.3618C70.597 50.0368 69.9237 50.5581 69.1027 50.5581C68.3711 50.5581 67.812 50.155 67.812 49.3165C67.812 48.0364 69.1501 47.6289 70.872 47.6584Z" fill="white"/>
</svg>
