<svg width="126" height="53" viewBox="0 0 126 53" fill="none" xmlns="http://www.w3.org/2000/svg">
<path d="M0.21582 25.1568V0.178417H10.1348C13.0578 0.178417 15.3818 0.939663 17.1068 2.46215C18.8319 3.98465 19.6944 6.03049 19.6944 8.5997C19.6944 11.2878 18.7361 13.3813 16.8193 14.88C14.9266 16.3787 12.5307 17.128 9.63167 17.128H4.63624V25.1568H0.21582ZM4.63624 13.1672H9.77542C11.4286 13.1672 12.7463 12.7509 13.7286 11.9183C14.711 11.0856 15.2021 9.99135 15.2021 8.63538C15.2021 7.20805 14.711 6.11376 13.7286 5.35251C12.7703 4.56748 11.4525 4.17496 9.77542 4.17496H4.63624V13.1672Z" fill="white"/>
<path d="M22.4246 25.1568V0.178417H26.845V21.1603H40.0703V25.1568H22.4246Z" fill="white"/>
<path d="M40.7223 25.1568L51.7913 0H55.8883L66.9573 25.1568H62.2853L59.7337 19.1263H47.8381L45.2505 25.1568H40.7223ZM49.4553 15.2368H58.1164L53.7679 5.24546L49.4553 15.2368Z" fill="white"/>
<path d="M69.4744 25.1568V0.178417H73.5713L87.0482 17.4492V0.178417H91.3968V25.1568H87.6951L73.8229 7.38646V25.1568H69.4744Z" fill="white"/>
<path fill-rule="evenodd" clip-rule="evenodd" d="M105.048 10.705V25.1568H116.692C119.543 25.1568 121.807 24.5621 123.484 23.3726C125.161 22.1832 126 20.4942 126 18.3056C126 15.332 124.335 13.2861 121.004 12.168C123.4 10.931 124.598 9.07548 124.598 6.60143C124.598 4.91241 124.035 3.50887 122.909 2.39079C121.424 0.915874 119.231 0.178417 116.332 0.178417H105.048V4.06791H109.396H115.757C117.171 4.06791 118.261 4.35337 119.028 4.92431C119.794 5.47145 120.178 6.24459 120.178 7.24373C120.178 8.3856 119.747 9.25389 118.884 9.84862C118.045 10.4196 116.895 10.705 115.434 10.705H109.396H105.048ZM116.728 21.2673H109.396V14.4161H116.404C119.854 14.4161 121.579 15.5342 121.579 17.7703C121.579 18.9122 121.148 19.7805 120.286 20.3752C119.447 20.9699 118.261 21.2673 116.728 21.2673Z" fill="white"/>
<path d="M0 52.758V32.4951H3.56368V35.0869C4.9381 33.1431 6.69539 32.1712 8.83556 32.1712C10.799 32.1712 12.4974 32.9075 13.9307 34.38C15.3641 35.833 16.0807 37.8063 16.0807 40.2999C16.0807 42.7542 15.3641 44.7177 13.9307 46.1902C12.4974 47.6432 10.799 48.3697 8.83556 48.3697C6.69539 48.3697 4.9381 47.4567 3.56368 45.6307V52.758H0ZM8.01091 45.2772C9.26752 45.2772 10.318 44.8158 11.1623 43.893C12.0262 42.9702 12.4581 41.7528 12.4581 40.241C12.4581 38.7684 12.0262 37.5707 11.1623 36.6478C10.2983 35.725 9.24788 35.2636 8.01091 35.2636C6.77393 35.2636 5.70384 35.7348 4.80065 36.6773C3.9171 37.6198 3.47532 38.8273 3.47532 40.2999C3.47532 41.7528 3.9171 42.9505 4.80065 43.893C5.70384 44.8158 6.77393 45.2772 8.01091 45.2772Z" fill="#EB2363"/>
<path d="M32.7776 48.0457H29.2434V46.1313C27.9868 47.6236 26.308 48.3697 24.2071 48.3697C22.656 48.3697 21.3405 47.9475 20.2606 47.1033C19.2003 46.2393 18.6702 45.0416 18.6702 43.5101C18.6702 41.8412 19.2494 40.5748 20.4078 39.7108C21.5663 38.8469 23.088 38.415 24.9729 38.415C26.4847 38.415 27.9181 38.6309 29.2728 39.0629V38.7684C29.2728 37.6885 28.9391 36.8638 28.2715 36.2944C27.6235 35.725 26.6811 35.4403 25.4441 35.4403C24.0304 35.4403 22.548 35.7643 20.9969 36.4122L20.025 33.5554C21.9492 32.6915 23.9224 32.2595 25.9448 32.2595C28.2028 32.2595 29.9012 32.8289 31.04 33.9677C32.1984 35.1065 32.7776 36.7264 32.7776 38.8273V48.0457ZM29.3318 42.4204V41.5369C28.2715 41.1245 27.0836 40.9184 25.7681 40.9184C24.6489 40.9184 23.7752 41.1343 23.1469 41.5663C22.5186 41.9983 22.2044 42.6069 22.2044 43.3923C22.2044 44.0992 22.4891 44.6587 23.0585 45.0711C23.6279 45.4834 24.3446 45.6896 25.2085 45.6896C26.4062 45.6896 27.3879 45.3852 28.1537 44.7766C28.9391 44.1679 29.3318 43.3825 29.3318 42.4204Z" fill="#EB2363"/>
<path d="M42.3469 48.3402C39.9123 48.3402 37.7132 47.5647 35.7497 46.0135L37.3401 43.5985C39.0287 44.8747 40.7271 45.5129 42.4353 45.5129C43.201 45.5129 43.7901 45.3656 44.2024 45.0711C44.6344 44.7569 44.8503 44.325 44.8503 43.7752C44.8503 43.5003 44.7718 43.2647 44.6147 43.0683C44.4773 42.8524 44.222 42.656 43.849 42.4793C43.4759 42.3026 43.1618 42.175 42.9065 42.0964C42.6513 42.0179 42.2291 41.8903 41.6401 41.7136L41.375 41.6252C40.8253 41.4681 40.354 41.3209 39.9613 41.1834C39.5883 41.0264 39.1661 40.8202 38.6949 40.5649C38.2237 40.3097 37.8408 40.0348 37.5463 39.7403C37.2518 39.4261 37.0063 39.0334 36.81 38.5622C36.6136 38.091 36.5155 37.5609 36.5155 36.9718C36.5155 35.5385 37.0358 34.3899 38.0764 33.5259C39.1367 32.662 40.462 32.2301 42.0524 32.2301C44.0748 32.2301 45.9793 32.8191 47.7661 33.9972L46.3524 36.53C44.7424 35.5483 43.2796 35.0574 41.9641 35.0574C41.2769 35.0574 40.7369 35.2047 40.3442 35.4992C39.9712 35.7937 39.7846 36.1864 39.7846 36.6773C39.7846 37.0111 39.9515 37.3154 40.2853 37.5903C40.6387 37.8652 40.9823 38.0713 41.3161 38.2088C41.6696 38.3266 42.2291 38.5131 42.9949 38.7684C43.0342 38.788 43.0832 38.8076 43.1421 38.8273C43.201 38.8469 43.2501 38.8567 43.2894 38.8567C43.9766 39.0727 44.5558 39.2887 45.0271 39.5047C45.4983 39.701 45.9892 39.9759 46.4997 40.3293C47.0298 40.6827 47.4323 41.1245 47.7072 41.6547C47.9821 42.1652 48.1195 42.764 48.1195 43.4512C48.1195 45.022 47.5796 46.2295 46.4997 47.0738C45.4198 47.9181 44.0355 48.3402 42.3469 48.3402Z" fill="#EB2363"/>
<path d="M56.7853 48.3402C54.3506 48.3402 52.1515 47.5647 50.188 46.0135L51.7784 43.5985C53.467 44.8747 55.1654 45.5129 56.8736 45.5129C57.6394 45.5129 58.2284 45.3656 58.6407 45.0711C59.0727 44.7569 59.2887 44.325 59.2887 43.7752C59.2887 43.5003 59.2101 43.2647 59.0531 43.0683C58.9156 42.8524 58.6604 42.656 58.2873 42.4793C57.9142 42.3026 57.6001 42.175 57.3448 42.0964C57.0896 42.0179 56.6674 41.8903 56.0784 41.7136L55.8133 41.6252C55.2636 41.4681 54.7923 41.3209 54.3997 41.1834C54.0266 41.0264 53.6045 40.8202 53.1332 40.5649C52.662 40.3097 52.2791 40.0348 51.9846 39.7403C51.6901 39.4261 51.4447 39.0334 51.2483 38.5622C51.052 38.091 50.9538 37.5609 50.9538 36.9718C50.9538 35.5385 51.4741 34.3899 52.5147 33.5259C53.575 32.662 54.9003 32.2301 56.4907 32.2301C58.5131 32.2301 60.4177 32.8191 62.2044 33.9972L60.7907 36.53C59.1807 35.5483 57.7179 35.0574 56.4024 35.0574C55.7152 35.0574 55.1752 35.2047 54.7825 35.4992C54.4095 35.7937 54.2229 36.1864 54.2229 36.6773C54.2229 37.0111 54.3898 37.3154 54.7236 37.5903C55.077 37.8652 55.4207 38.0713 55.7544 38.2088C56.1079 38.3266 56.6674 38.5131 57.4332 38.7684C57.4725 38.788 57.5216 38.8076 57.5805 38.8273C57.6394 38.8469 57.6884 38.8567 57.7277 38.8567C58.4149 39.0727 58.9941 39.2887 59.4654 39.5047C59.9366 39.701 60.4275 39.9759 60.938 40.3293C61.4681 40.6827 61.8706 41.1245 62.1455 41.6547C62.4204 42.1652 62.5578 42.764 62.5578 43.4512C62.5578 45.022 62.0179 46.2295 60.938 47.0738C59.8581 47.9181 58.4738 48.3402 56.7853 48.3402Z" fill="#EB2363"/>
<path d="M66.1804 52.758V32.4951H69.7441V35.0869C71.1185 33.1431 72.8758 32.1712 75.016 32.1712C76.9794 32.1712 78.6778 32.9075 80.1111 34.38C81.5444 35.833 82.2611 37.8063 82.2611 40.2999C82.2611 42.7542 81.5444 44.7177 80.1111 46.1902C78.6778 47.6432 76.9794 48.3697 75.016 48.3697C72.8758 48.3697 71.1185 47.4567 69.7441 45.6307V52.758H66.1804ZM74.1913 45.2772C75.4479 45.2772 76.4984 44.8158 77.3427 43.893C78.2066 42.9702 78.6385 41.7528 78.6385 40.241C78.6385 38.7684 78.2066 37.5707 77.3427 36.6478C76.4787 35.725 75.4283 35.2636 74.1913 35.2636C72.9543 35.2636 71.8842 35.7348 70.981 36.6773C70.0975 37.6198 69.6557 38.8273 69.6557 40.2999C69.6557 41.7528 70.0975 42.9505 70.981 43.893C71.8842 44.8158 72.9543 45.2772 74.1913 45.2772Z" fill="#EB2363"/>
<path d="M93.3033 48.3991C90.9471 48.3991 88.9837 47.6138 87.4129 46.043C85.8421 44.4722 85.0567 42.5578 85.0567 40.2999C85.0567 38.0419 85.8519 36.1275 87.4423 34.5568C89.0327 32.9664 91.006 32.1712 93.3622 32.1712C95.7183 32.1712 97.6818 32.9565 99.2525 34.5273C100.843 36.0981 101.638 38.0223 101.638 40.2999C101.638 42.5382 100.843 44.4526 99.2525 46.043C97.6621 47.6138 95.679 48.3991 93.3033 48.3991ZM93.3622 45.3067C94.7758 45.3067 95.9147 44.8256 96.7786 43.8635C97.6425 42.9015 98.0745 41.7136 98.0745 40.2999C98.0745 38.9058 97.6229 37.7277 96.7197 36.7656C95.8165 35.7839 94.6777 35.2931 93.3033 35.2931C91.9092 35.2931 90.7802 35.7741 89.9163 36.7362C89.0524 37.6983 88.6204 38.8862 88.6204 40.2999C88.6204 41.6743 89.072 42.8524 89.9752 43.8341C90.8784 44.8158 92.0074 45.3067 93.3622 45.3067Z" fill="#EB2363"/>
<path d="M105.267 48.0457V32.4951H108.831V35.9999C109.931 33.3492 111.766 32.0828 114.339 32.2006V35.9704H114.132C112.522 35.9704 111.236 36.5006 110.274 37.5609C109.312 38.6015 108.831 40.1232 108.831 42.1259V48.0457H105.267Z" fill="#EB2363"/>
<path d="M122.647 48.3108C119.662 48.3108 118.17 46.7891 118.17 43.7457V35.5581V32.4951V28.2246H121.734V32.4951H125.916V35.5581H121.734V43.1862C121.734 44.482 122.372 45.13 123.648 45.13C124.414 45.13 125.15 44.9533 125.857 44.5998V47.5156C124.914 48.0457 123.844 48.3108 122.647 48.3108Z" fill="#EB2363"/>
</svg>
