<svg width="248" height="259" viewBox="0 0 248 259" fill="none" xmlns="http://www.w3.org/2000/svg">
<g opacity="0.9">
<g opacity="0.5" filter="url(#filter0_f)">
<g clip-path="url(#clip0)">
<path d="M47.2225 10.938L46.6053 11.4298L46.2646 11.7735L45.7282 11.9708L44.9717 11.9643L44.0862 11.2974L43.7892 11.2381L43.2676 11.5614L41.9654 11.4243L41.582 11.6744L40.9119 11.7123L39.8918 12.1431L39.5948 12.3959L39.2932 12.4219L38.7038 12.8044L38.5228 13.4417L38.2582 13.8983L37.3013 14.1318L35.1804 14.8792L33.6146 15.435L32.2121 15.4109L30.6695 14.8793L29.0035 14.9432L28.5876 15.1229L28.2043 15.7648L27.3179 16.1436L26.6905 16.6595L25.8867 16.7623L24.977 16.3409L24.6513 16.4761L24.5557 16.7207L24.2633 17.1347L24.2011 17.7405L23.9143 18.3175L23.5263 18.7566L22.5777 19.4004H21.2616L20.5961 19.9691L20.3325 20.3831L20.3287 20.9287L20.1031 21.4993L19.7727 22.0106L19.2882 22.3524L18.7332 22.7127L18.7861 23.7399L18.6236 24.2123L17.9767 24.304L17.3066 24.7745L16.6986 25.5582L15.5922 26.0741H14.6111L14.1081 26.6678L13.8872 27.0837L13.644 28.374L13.7396 29.0104L13.5011 29.4615L12.5423 29.7319L12.1979 30.1348L12.0253 30.824L11.9445 31.9513L11.0006 33.148L10.6274 33.8371L10.6182 35.346L11.1881 36.2917L10.9245 37.7052L11.0637 38.0146L10.8242 38.6685L10.8808 39.2067L10.6748 39.7467L10.6646 40.1922L10.9913 40.8045L10.7379 42.0892L10.2395 43.4684L10 45.6146L10.2534 46.2083L11.2493 46.8567L11.538 47.0244L11.9102 47.2522L13.1799 47.8062L13.3702 48.0331L13.7916 48.2869L14.4534 48.562L15.4725 48.9881L16.3682 49.7263L17.2249 50.3191L18.1206 51.3121L18.2347 51.9419L18.6376 52.9877L19.73 53.8093L20.3807 54.994L20.8791 55.4126L21.0749 55.8915L21.0852 56.3806L22.018 57.4041L22.4783 58.7926L22.5071 59.4484L22.2528 59.7485L22.2045 60.2107L22.0708 60.5099L22.0569 61.2074L22.3289 61.9336L23.5884 62.6486L24.1444 63.071L25.3937 63.6685L26.1307 64.2992L26.6142 64.5808L27.0551 64.9967L27.6538 65.9147L28.5161 67.5551L29.5213 68.2933L30.8513 68.9954L31.6041 69.6966L31.8816 69.9606L33.1746 71.2888L34.888 73.1442L36.1094 73.8592L37.0951 74.4168L38.0484 75.0893L38.5032 75.3292L39.1742 75.282L40.4477 75.9128L41.5244 76.4102L43.7223 77.0623L45.0635 77.7931L46.3128 78.6017L47.6587 79.0889L49.8417 80.1458L51.3212 80.7942L52.1835 81.312L53.4996 82.1567L54.051 82.3188L54.8019 82.7329L55.4581 83.0987L56.0428 83.3155L56.7315 83.8259L57.1529 84.2445L57.5845 84.6308L58.1869 85.3579L58.7707 86.3185L59.3601 87.7718L59.6952 88.3655L59.6904 88.9703L59.6292 89.9022L59.9197 90.3588L60.562 90.4913L61.453 91.223L61.9459 92.1734L62.3487 92.9468L63.0755 95.0679L63.727 95.2708L64.6032 95.1078L65.4507 95.0263L66.7965 95.5172L68.185 96.3888L69.0993 96.4666L70.5259 97.1085L71.0234 97.5161L71.6508 97.6791L72.2161 98.0274L72.5901 98.5915L72.4751 98.9638L72.4695 99.4029L72.6282 100.093L73.1981 100.422L73.9026 100.229L74.3472 100.063L75.3812 100.171L76.856 100.681L77.0482 100.855L99.3396 86.0248C108.045 80.2332 112.926 76.986 121.631 71.1944L120.695 70.3033L119.695 68.8417L118.871 67.644L118.684 67.2364L118.182 67.1281L116.669 65.5488L116.313 64.9708L115.821 64.5827L115.199 63.8204L114.232 62.7876L113.547 61.9521L112.608 60.8109L111.593 59.3159L110.395 57.4847V57.0957L110.401 56.5594L109.769 55.8517L109.448 55.798L108.902 55.2274L108.203 54.3799L108.279 53.8352L108.082 53.5824L107.289 53.3295L107.14 52.8191L107.078 52.0309L106.872 51.4936L106.536 51.414L105.972 50.7295L105.44 50.4608L105.426 50.1329L105.052 50.0366L104.636 49.6429L104.07 49.3493L103.363 48.7139L102.371 47.9256L101.864 46.1426L101.131 45.8851L100.719 45.1515L100.016 44.8884L99.3363 44.9829L98.8759 44.8523L98.5121 44.6531L97.8373 43.2554L97.7844 42.1735L97.3955 41.4121L96.6205 41.0037L95.8538 41.075L94.6676 41.0333L93.7292 39.9709L93.2837 39.8134L92.7333 38.9362L92.2627 38.8464L90.7554 38.9066L90.243 38.6546L89.8031 38.1693L89.1942 37.9887L88.1119 37.2319L87.3843 36.3668L86.6946 36.2399L85.8853 36.2269L85.4982 35.7184L85.0332 35.6535L83.8897 35.1543L83.1509 34.1984L82.1327 33.8158L81.327 33.1313L80.4026 32.3375L80.0489 31.8225L79.6953 31.3844L79.3259 30.9935L79.0864 30.7888L78.019 30.158L77.334 29.6791L76.8653 29.1345L76.1757 28.7473L75.5148 28.0156L74.9839 27.5274L74.7054 27.2431L74.4233 26.8651L73.7773 26.0148L73.3559 25.5397L73.0867 25.0006L72.824 24.606L72.4027 24.1725L71.9859 23.085L71.4012 22.7247L70.8554 22.3283L70.0562 22.0699L69.5392 21.3816L69.18 21.1816L68.7874 21.2862L67.7107 21.8059L67.1882 21.4826L66.3463 21.0028L65.6177 20.5211L64.7322 20.4443L63.9563 19.9746L63.4449 19.7468H62.8499L62.3673 19.4402L62.2568 18.8344L61.8215 18.8881L61.4428 19.1225L61.0214 18.9419L60.7003 18.5389L60.1833 17.3867L59.6041 17.1227L59.1976 17.1199L58.0726 17.8748L56.9319 17.8655L56.3676 18.1471L55.6436 18.852L54.6718 18.9956L53.4986 18.199L52.8767 16.7383L52.6809 16.1195L52.3839 15.6573L52.2159 15.5017L52.0581 15.3211L51.5067 14.8765L51.1058 14.5532L50.9517 14.4152L50.6268 14.1808L50.4059 13.7362L50.1757 13.2397L50.0421 12.6858L49.798 12.4839V12.294L49.5826 11.905L49.0703 11.5567L47.7293 10.9667L47.2225 10.938Z" fill="#101010"/>
<path d="M188.231 150.553L188.169 150.577L188.107 150.613L188.025 150.701L187.948 150.788L187.915 150.894L187.929 150.997L187.972 151.087L188.054 151.17L188.096 151.231L188.188 151.238L188.275 151.243L188.37 151.231L188.428 151.184L188.451 151.13L188.48 151.065L188.504 150.991L188.552 150.931L188.628 150.895L188.652 150.847L188.6 150.835L188.648 150.775L188.614 150.715L188.567 150.666L188.471 150.651L188.385 150.571L188.312 150.553H188.231L188.231 150.553ZM202.499 164.916L202.039 164.978L201.551 165.134L200.991 165.434L200.575 165.499L199.971 165.626L199.482 165.59L199.421 165.674L199.224 165.819L198.989 165.902L198.615 166.089L198.319 166.219L197.845 166.299L196.763 166.539L195.671 166.868L194.652 167.067H193.986L193.187 167.019L192.429 167.049L191.803 166.959L191.381 166.755L191.08 166.527L191.017 166.463L190.884 166.335L190.625 166.215L190.252 166.202L189.821 166.268L189.495 166.425L189.198 166.755L188.781 167.206L188.336 167.529L188.001 167.781L187.494 168.027L187.226 168.243L187.068 168.441L187.211 168.58L187.407 168.725L187.632 168.789L187.737 168.729L187.838 168.76L188.086 169.209L188.039 169.594L187.901 170.105L187.718 170.705L187.326 171.27L186.894 171.606L186.765 171.594L186.569 171.6L186.286 171.972L186.172 172.417L185.99 172.71L185.741 173.174L185.717 173.588L185.521 173.919L184.946 174.405L184.505 174.638L184.281 174.681L184.08 174.896L183.941 174.98L183.821 175.197L183.553 175.473L183.193 176.037L182.974 176.123L182.81 176.554L182.557 176.83L182.375 176.968L182.6 177.136L182.772 177.322L182.978 177.448L183.199 177.634L183.103 178.428L182.821 179.009L182.514 179.286L182.371 179.707L182.251 179.832L182.097 180.132L182.332 180.331L182.399 180.547L182.322 180.872L182.16 181.214L181.79 181.616L181.015 182.403L180.795 182.763L180.47 183.177L179.751 184.119L179.459 184.54L179.216 184.798L178.698 185.591L177.827 187.351L177.525 187.974L177.2 188.888L176.865 189.753L176.605 190.533L176.38 191L176.204 191.476V191.614L176.132 191.895L176.141 192.178L176.001 192.634L175.762 193.163L175.557 194.267L175.5 194.483L175.313 195.409L175.212 196.356L175.13 196.874L175.083 197.426L175.13 198.025L175.108 198.574L175.083 198.97L174.987 199.035L175.006 199.563L174.948 200.194L174.94 200.806L174.844 201.208L175.05 201.646L175.102 201.935L175.073 202.205L175.079 202.487L175.179 202.709L175.443 203.964L175.48 204.499L175.495 205.436L175.648 206.27L175.907 207.405L176.001 208.373L176.016 209.429L175.921 209.627L175.791 209.662L175.677 209.747L175.557 209.794L175.48 209.903L175.394 209.987L175.222 210.323L175.179 210.63L174.715 211.175L174.7 211.416L174.605 211.686L174.594 212.017L174.637 213.8V215.32L173.871 215.348L173.88 215.475L174.423 215.445L174.547 216.34L174.584 216.411H174.661L174.738 216.52L174.762 217.116L174.656 218.069L174.599 218.317L174.523 218.639L174.259 219.186L173.972 219.447L173.915 219.498L173.819 219.474H173.674L173.58 219.583L173.488 219.57L173.363 219.619L172.837 219.51L172.464 219.467L172.392 219.522L172.286 219.597L172.21 219.658L172.075 219.709L172.167 219.853L172.344 219.997L172.392 220.171L172.291 220.422L172.454 220.52L172.531 220.669L172.578 220.855L172.723 221.131L172.895 221.455L173.005 221.851L172.985 222.271L172.871 222.525L172.881 222.68L173.119 222.866L173.316 223.112L173.435 223.293L173.589 223.329L173.795 223.509L173.909 223.684L174.067 223.767L174.541 223.905L175.058 224.278L175.318 224.614V224.914L175.369 225.203L175.365 225.304L175.701 225.826L175.973 226.212L176.175 226.59L176.151 226.801L176.06 227.328L176.204 227.431L176.06 227.557L176.318 228.122L176.533 228.95L176.744 229.514L177.2 229.861L177.639 230.193L177.76 230.439L177.731 230.625L177.87 230.87L178.009 231.117L178.146 231.298L178.482 231.567L178.535 231.831L178.506 232.13L178.693 232.204L178.875 232.522L178.904 232.769L178.931 232.821L179.148 233.02L179.345 233.32L179.68 233.873L179.952 234.521L179.966 234.803L179.798 235.5L179.913 236.58L179.646 237.013L178.617 237.721L178.554 237.656L178.473 237.741L177.922 237.318L177.842 237.422L178.502 237.955L179.355 237.355L179.435 237.336L179.531 237.314L179.809 237.272L180.124 237.296L180.365 237.362L180.48 237.53L180.867 237.595L181.27 237.721L181.71 238.01L181.929 238.292L181.949 238.79L181.882 239.114H182.045L182.284 239.216L182.553 239.302L183.06 239.391L183.515 239.655L183.821 239.972L183.912 240.315L183.884 240.496L183.998 240.659L184.242 240.845L184.377 240.88L184.563 240.929L184.735 241.06L184.955 241.438L185.205 241.702H185.43L185.798 241.902L186.153 242.201L186.283 242.568L186.407 242.881L186.551 242.92L186.804 243.011L186.996 243.193L187.033 243.517L187.091 243.779L187.302 243.739L187.632 243.9L187.853 244.226L187.958 244.83L187.939 245.126L187.948 245.348L188.164 245.521L188.543 245.666L188.7 245.829L189.064 246.182L189.524 246.357L190.07 246.224L190.367 246.26L190.506 246.38L190.611 246.62L191.184 247.023L191.266 247.15L191.415 247.323L191.563 247.31L191.75 247.24L191.837 247.245L192.013 247.191L192.166 247.1L192.377 247.059L192.894 247.263L193.441 247.563L193.703 247.785L193.976 247.882L194.432 247.719L194.872 247.822L195.452 248.062L195.589 248.049L195.638 247.888L195.853 247.947L196.069 248.008L196.174 247.882L196.298 247.809L196.448 247.84L196.601 247.785L196.73 247.731L196.841 247.757L197.199 247.701L197.4 247.485L197.476 247.305L197.711 247.31L197.887 247.18L197.99 246.975L198.104 246.656L198.252 246.542L198.52 246.597H198.951L199.517 246.662L199.837 246.674L200.115 246.567L200.474 246.688L200.77 246.698L201.072 246.782L201.288 246.867L201.48 246.741L201.647 246.578L201.781 246.542L202.16 246.339L202.356 246.099L202.418 245.762L202.658 245.623L202.849 245.449L203.03 245.18L203.399 244.928L203.754 244.513L204.511 244.002L205.051 243.739L205.463 243.913L205.799 244.039L205.956 243.962L206.038 243.762L206.382 243.462L206.679 243.144L207.086 242.82L207.498 242.735L207.857 242.778L208.092 242.76L208.331 242.627L208.59 242.615L208.977 242.76L209.28 242.82L210.094 242.412L210.38 242.057L210.619 241.817L210.854 241.559L211.18 241.336L211.492 241.325L211.874 241.379L211.971 241.384L212.295 241.264L212.574 241.246L213.291 241.05L213.665 241.006L213.881 241.054L214.374 241.114L214.776 241.14L215.265 240.994L215.619 240.951L215.915 240.814L216.437 240.418L216.925 240.382L217.136 240.455L217.433 240.304L217.668 240.106L217.821 239.878L218.276 239.626L218.909 239.097L219.291 238.935L219.984 238.67L220.651 238.539L221.288 238.448L221.742 238.49L222.036 238.412H222.297L222.811 238.37L223.236 238.49L223.816 238.67L224.261 238.815L224.592 239.013L225.013 239.042L225.271 238.935L225.587 238.815L225.831 238.886L226.057 239.031L227.44 238.935L227.646 238.833L228.048 238.035L228.35 237.529L228.71 237.14L229.211 236.78L229.614 236.455L230.011 236.425L230.242 236.166L230.534 235.819L230.581 235.668L231.022 235.075L231.319 234.737L231.452 234.388L231.496 234.089L231.562 233.873L231.673 233.651L231.873 233.53L232.244 233.428L232.415 233.249L232.468 233.025L232.405 232.853L232.166 232.655L232.186 232.486L232.147 232.03L232.281 231.514L232.63 230.792L232.904 230.247L233.128 229.707L233.225 229.423L233.148 229.182L233.114 228.709L233.225 228.602L233.646 228.264L233.757 227.869L233.814 227.521L233.785 227.244L233.771 226.781L233.88 226.031L233.923 225.575L234 225.064L234.086 224.512L234.359 224.043L234.579 223.834L234.986 223.726L235.197 223.611L235.523 223.431L235.646 223.16L235.762 222.645L235.667 222.104V221.672L235.8 221.391L236.149 221.245L236.399 221.029L236.499 220.452L236.413 219.667L236.471 219.042L236.556 218.82L236.628 218.591L236.792 218.292L236.796 218.021L236.816 217.774L236.806 217.602L236.551 217.325L236.504 217.116L236.227 216.876L236.024 216.633L236.049 216.255L236.177 215.734L236.427 215.445L236.926 215.163L237.044 214.928L237.068 214.61L237.064 214.412L236.973 214.329L236.93 214.023L236.883 213.703L236.997 213.434L237.376 212.696L237.734 212.178L237.873 211.855L237.897 211.44V210.972L237.768 210.51L237.609 210.071L237.418 209.608L237.131 209.248L236.886 209.068L236.757 208.859L236.623 208.498L236.504 208.089L236.365 207.639L236.183 207.243L236.063 207.003L236.016 206.804L236.077 206.636V206.463L235.982 206.043L235.972 205.819L235.871 205.472L235.824 205.118L235.891 204.822L235.881 204.535L235.8 204.108L235.685 203.713L235.709 203.449L235.93 203.173L235.967 202.95L235.919 202.6L236.006 202.41L236.048 202.084L236.034 201.947L236.183 201.43L236.14 201.166L236.25 200.873L236.351 200.512L236.327 199.726L236.188 199.191L235.819 198.746L235.431 197.984L235.225 197.786L234.846 196.844L234.828 196.699L234.651 196.045L234.631 195.733L234.636 195.384L234.407 194.069L234.296 193.138L234.287 192.795L234.359 192.574L234.417 192.375L234.311 191.968L234.278 191.655L234.33 191.289L234.272 191.079L234.296 190.815L234.449 190.623L234.588 190.329L234.655 190.024L234.651 189.727L234.693 189.494L234.746 189.247L234.717 188.983L234.612 188.792L234.2 188.599L233.793 188.358L233.64 188.107L233.625 187.662L233.717 187.447L233.889 187.2L233.956 186.816L233.952 186.232L233.865 185.813L233.918 185.489L233.961 185.249L233.903 185.092L233.865 184.896L233.74 184.715L233.324 184.468L233.022 184.311L232.74 184.01L232.62 183.735L232.501 183.507L232.443 183.219L232.328 183.201L232.112 182.961L231.84 182.667L231.639 182.576L231.562 182.434L231.333 182.194L231.073 181.976L230.992 181.827L230.672 181.501L230.341 181.226L230.269 181.129L229.862 180.938L229.537 180.721L229.355 180.408L229.168 179.946L228.957 179.592L228.862 179.293L228.814 178.907L228.709 178.516L228.585 178.259L228.325 177.952L228.061 177.712L227.808 177.616L227.458 177.659L227.08 177.412L226.774 176.992L226.803 176.494L226.918 175.887L226.986 175.612L226.889 175.498L226.894 175.365L226.832 175.209L226.731 175.107L226.678 174.95L226.621 174.946L226.497 174.826L226.339 174.615L226.128 174.494L225.592 174.405L225.419 174.417L225.05 174.327L224.428 174.14L224.241 174.02L224.156 173.984L223.801 173.738L223.604 173.624L223.474 173.575L223.417 173.611L223.073 173.617L222.465 173.708L222.254 173.78H221.857L221.329 173.89L220.66 173.972L220.382 173.924L220.09 173.792L219.764 173.528L219.601 173.437L219.377 173.462L219.166 173.73L218.884 173.858L218.362 173.702L217.978 173.3L217.744 172.927L217.606 172.381L217.614 172.123L217.562 171.955L217.461 171.834L217.05 171.787L216.633 171.581L216.35 171.48L216.035 171.108L215.848 170.7L215.8 170.172L215.461 169.835L215.201 169.475L215.097 169.09L215.082 168.952L214.958 168.898L214.655 168.815L213.794 167.882L213.492 167.067L213.411 166.984L213.295 167.067L212.458 166.605L212.328 166.495L212.281 166.515L212.038 166.43L211.462 166.154L210.95 165.841L210.921 165.746L210.744 165.878L210.183 165.452L210.03 165.373L209.738 165.188L209.523 165.122L209.475 165.055L209.364 165.008L209.121 164.952L208.996 164.989L208.8 165.049L208.757 165.152L208.498 165.212L207.827 165.368L207.733 165.338L207.717 165.488L207.253 165.639L206.808 165.613L206.43 165.758L205.87 165.998L204.95 165.992L204.557 165.908L204.266 165.788L204.122 165.722H204.031L203.682 165.518L203.222 165.192L202.963 165.002L202.499 164.916L202.499 164.916Z" fill="#101010"/>
<path d="M121.631 71.1944L77.0483 100.855L77.647 101.398L78.1482 101.666L78.9103 101.742L80.2932 101.366L81.0358 101.257L81.8693 101.396L82.7362 101.841L83.2727 102.724L83.837 102.757L84.8041 102.508L85.594 102.369L86.5714 102.674L86.8823 102.535L87.7539 102.393L88.5772 102.556L88.9364 102.464L89.5016 102.568L90.1717 102.386L90.8038 102.586L91.2252 102.711L91.9 102.534L92.6138 102.537L93.1122 102.694L93.5568 102.706L94.3949 102.992L94.6687 103.562L94.5768 104.127L94.9555 104.407L95.6972 104.31L96.1371 104.843L96.7878 104.822L128.179 83.9371L126.159 81.5056L123.085 73.4999L122.973 72.6274L122.625 71.9744L121.984 71.5298L121.631 71.1945V71.1944ZM178.48 135.969L153.286 152.731L153.215 153.046L153.116 153.395L153.23 153.37L153.346 153.399L153.504 153.395L153.608 153.461L153.733 153.538L153.815 153.628L153.876 153.748L153.853 153.928L153.815 154.012L153.886 154.066L153.978 154.049L153.958 154.216L153.91 154.335L153.968 154.468L153.949 154.595L154.044 154.673L154.139 154.744L154.154 154.882L154.236 154.978L154.327 155.16L154.399 155.221L154.474 155.322L154.532 155.496L154.556 155.662L154.604 155.862L154.552 156.284L153.34 158.528L153.689 158.817L153.771 158.869L153.968 159.082L154.154 159.35L154.297 159.464L154.393 159.584L154.461 159.771L154.657 159.717L154.785 159.758L154.906 159.842L154.935 159.932L154.882 160.068L154.839 160.215L154.843 160.396L154.953 160.449L154.959 160.593L154.978 160.731L155.117 160.767L155.251 160.787L155.399 160.719L155.524 160.791L155.96 160.697L156.199 160.712L156.357 160.833L156.534 160.952L156.539 161.092L156.624 161.128L156.677 161.049L156.769 161.013L156.908 161.049L157.023 161.092L157.123 161.056L157.223 161.151L157.329 161.199L157.424 161.162L157.559 161.176L157.65 161.068L157.765 161.05L157.913 160.983L157.947 160.839L158.109 160.636L158.464 160.367L158.637 160.221L158.937 160.076L159.201 159.836L159.359 159.652L159.507 159.489L159.55 159.14L159.546 158.877L159.483 158.648L159.412 158.408L159.325 158.293L159.254 158.112L159.182 158.004L159.029 157.819L158.914 157.722L158.866 157.621L158.871 157.526L158.952 157.363L159.043 157.257L159.14 157.236L159.201 157.098L159.148 156.918L159.111 156.702L159.087 156.33L159.09 156.132L159.162 156.054L159.268 155.933L159.292 155.838L159.22 155.742L159.325 155.693L159.311 155.591V155.269L159.186 154.925L159.162 154.703L159.154 154.48L159.043 154.317L158.976 154.139L158.943 153.912L158.923 153.508L158.972 153.221L158.986 153.022L159.096 152.68L159.162 152.464L159.349 152.253L159.526 152.092L159.853 151.839L160.15 151.625L160.585 151.325L161.03 151.047L161.313 150.868L162.682 150.712L163.448 150.765L163.559 150.836L163.736 151.04L163.884 151.311L163.97 151.52L164.041 151.767L164.104 151.834L164.194 152.092L164.281 152.336L164.315 152.488L164.286 152.602L164.415 152.614L164.579 152.631L164.718 152.65L164.985 152.788L165.234 152.974L165.335 153.048L165.569 153.559L165.789 153.937L165.976 154.267L166.331 154.409L166.906 154.158L167.356 153.618L167.192 153.228L167.346 152.471L167.691 151.396L168.534 150.46L168.883 150.363L169.28 150.568L169.491 150.375L169.673 149.895L171.301 148.887L172.737 148.718L173.537 148.994L173.546 149.397L173.691 149.625L173.938 150.618L174.149 151.119L175.087 151.276L175.973 151.349L176.758 151.018L177.204 150.602L177.543 149.481L177.319 149.175L177.267 148.538L176.779 148.237L176.285 147.571L175.701 147.637L175.37 146.466L175.586 145.361L176.15 144.641L177.621 143.849L178.703 143.523L179.148 142.953L179.445 142.515L179.847 142.1L180.359 141.614L180.666 141.188L180.479 140.895L180.255 140.148L180.034 139.958L180.101 139.73L180.297 139.561L180.216 139.442L179.551 139.171V137.94L178.889 136.554L178.545 135.994L178.48 135.969H178.48Z" fill="#101010"/>
<path d="M128.179 83.937L96.7886 104.822L97.4253 104.801L97.8996 104.326L98.5883 104.086L99.2408 104.008L99.7578 104.059L100.108 104.27L100.346 104.517L100.529 104.96L100.537 105.324L100.754 105.641L101.309 105.601L101.907 105.175L102.764 104.446L102.879 104.145L102.769 103.455L103.099 103.15L103.492 103.05L103.415 102.816L104.799 102.267L106.81 101.695L106.94 101.719L106.986 102.254L107.145 102.207L107.122 102.074L107.27 101.846L107.553 101.786L107.734 101.582L107.844 101.571L107.825 102.855L107.974 102.848V102.116L108.496 102.096L108.504 103.321L110.659 103.291L111.153 102.552L111.144 101.411L111.694 101.377L113.691 101.493L116.43 101.612L116.78 101.864L117.339 101.98L117.412 101.763L118.608 102.267L119.087 102.813L119.164 103.346L119.183 103.471L119.259 103.891L119.019 104.63L118.919 104.691L118.91 104.852L119.451 105.747L119.436 105.842L119.302 105.963L119.086 106.069L118.996 106.01L118.953 106.022V106.191L119.03 106.377L118.35 106.743L118.034 107.487L118.182 107.548L118.163 107.621L118.464 107.715L118.91 106.76L119.753 106.111L120.039 106.224L120.226 106.392L120.495 106.632L120.682 106.915L120.979 107.17L121.352 108.302L121.916 108.492L122.324 108.961L122.745 109.142L123.607 109.816L124.444 110.187L125.723 110.373L126.603 109.928L127.106 109.972L127.759 110.319L128.39 110.127L128.677 110.445L129.616 110.709L130.376 110.705L130.587 110.595L131.1 110.745L131.679 110.697L134.619 111.64L134.845 111.977L134.935 113.038L135.936 113.965L136.529 114.348L137.531 115.07L138.307 115.603L139.201 115.61L139.532 115.365L140.94 115.779L141.777 116.159L143.435 116.885L144.598 117.37L145.216 117.69L146.729 118.752L147.557 119.167L148.151 119.587L148.753 120.157L149.414 120.739L149.467 120.908L149.797 121.208L150.046 121.491L150.123 121.767L150.655 122.129L151.23 122.807L152.421 124.96L152.661 124.968L153.082 125.506L153.279 125.72L153.796 126.363L153.867 126.838L154.122 127.608L154.246 127.9L153.872 128.855L153.996 129.234L153.958 129.789L154.183 130.155L154.748 130.439L154.428 131.382L154.647 131.757L155.213 132.329L155.635 133.292L155.739 134.259L155.481 134.63L155.303 134.783L154.629 135.628L154.073 136.101L153.738 136.637L153.417 137.23L153.604 138.174L155.649 137.98L156.124 138.721L156.164 138.67L157.343 139.208L156.456 139.479L156.413 140.088L156.435 140.76L155.972 141.145L156.005 141.249L155.467 141.537L154.921 142.293L154.581 142.579L154.552 142.868L154.539 143.15L154.442 143.481L154.413 143.969L154.342 144.236L154.25 144.489L153.992 144.959L153.412 145.473L152.651 146.1L152.081 146.507L151.416 146.826L151.21 146.928L150.765 147.118L150.598 147.204L150.43 147.407L150.224 147.857L150.248 148.163L150.242 148.374L150.252 148.519L150.16 148.68L150.219 148.86L150.185 149.028L150.081 149.112L150.195 149.221L150.286 149.358L150.348 149.544L150.367 149.731L150.42 149.965L150.473 150.043L150.439 150.12L150.342 150.223L150.386 150.271L150.473 150.321L150.524 150.385L150.606 150.451L150.721 150.468L150.842 150.427L150.909 150.324L150.974 150.307L151.071 150.35L151.153 150.427L151.238 150.463L151.344 150.404L151.459 150.487L151.602 150.535L151.751 150.481L151.865 150.505L151.986 150.548L152.095 150.655L152.287 150.752L152.455 150.817L152.465 150.945L152.537 151.028L152.646 151.048L152.776 151.034L152.89 150.987L152.996 151.048L153.029 151.093L153.116 151.214L153.264 151.412L153.369 151.628L153.451 151.983L153.441 152.205L153.325 152.554L153.286 152.73L178.48 135.969L178.123 135.831L177.807 135.712L177.458 134.794L177.788 134.097L177.582 133.631L176.817 133.727L176.453 133.346L175.495 133.052L174.197 132.548L173.896 132.59L173.239 132.374L172.977 131.889L172.253 131.58L171.741 130.837L171.29 130.5L170.961 130.272L170.333 129.768L170.171 130.073L169.815 130.698L168.873 133.719L168.03 134.09L166.934 134.33L165.836 133.749L165.435 132.95L165.717 132.409L165.775 131.292L164.894 130.23L164.215 128.783L163.888 128.303L162.951 128.566L161.696 127.643L161.489 126.549L160.503 125.504L159.554 124.676L159.038 124.832L157.783 125.167L156.874 124.526L156.257 124.34L155.849 123.919L156.166 123.649L156.29 122.586L155.71 121.956L155.241 121.391L154.858 120.626L154.576 119.965L154.01 119.572L153.383 119.469L152.909 119.092L152.54 119.164L151.852 118.672L151.391 117.716L150.841 117.338L150.635 116.655L150.424 116.305L150.081 116.581L149.754 116.438L148.85 116.215L147.824 116.186L147.628 115.519L146.877 115.612L146.154 115.2L145.938 114.57L145.412 114.355L144.727 114L144.06 113.531L142.729 112.049L142.653 111.733L141.715 111.166L141.624 110.788L141.734 110.612L141.868 110.355L141.997 110.223L141.776 109.815L141.624 108.902L141.251 108.805L140.551 108.452L139.934 109.181L139.426 109.25L138.243 108.802L137.396 107.761L137.022 106.441L137.128 104.682L137.457 103.864L137.592 103.038L137.152 102.59L137.004 102.114L137.089 101.529L137.434 100.651L137.76 100.441L137.468 100.027L137.07 100.015L136.375 99.1722L135.964 98.6637L136.118 97.5827L136.443 96.8204L136.643 96.0831L136.31 95.5903L135.858 95.7394L133.834 95.4931L132.464 94.4065L131.382 92.5874L131.033 90.3865L131.416 89.338L131.928 88.6183L131.966 88.3784L131.32 87.6485L130.286 86.2313L129.18 85.142L128.179 83.937L128.179 83.937Z" fill="#101010"/>
</g>
</g>
<g clip-path="url(#clip1)">
<path d="M50.7809 13.706L50.1812 14.1846L49.8502 14.519L49.3289 14.711L48.5939 14.7047L47.7335 14.0557L47.4449 13.998L46.9381 14.3126L45.6727 14.1792L45.3003 14.4225L44.6491 14.4595L43.658 14.8786L43.3694 15.1247L43.0763 15.1499L42.5036 15.5222L42.3277 16.1423L42.0707 16.5867L41.1409 16.8138L39.0801 17.5412L37.5586 18.082L36.1959 18.0585L34.697 17.5412L33.0782 17.6034L32.6741 17.7782L32.3017 18.4029L31.4404 18.7715L30.8307 19.2736L30.0497 19.3736L29.1659 18.9635L28.8493 19.0951L28.7564 19.333L28.4723 19.7359L28.4119 20.3254L28.1332 20.8869L27.7563 21.3142L26.8346 21.9406H25.5557L24.9091 22.494L24.6529 22.8969L24.6492 23.4278L24.4301 23.9831L24.109 24.4806L23.6382 24.8132L23.0989 25.1638L23.1503 26.1634L22.9925 26.6231L22.3639 26.7123L21.7128 27.1702L21.122 27.9327L20.047 28.4348H19.0937L18.6049 29.0125L18.3903 29.4172L18.154 30.6728L18.2469 31.292L18.0151 31.731L17.0835 31.9942L16.7489 32.3862L16.5811 33.0568L16.5027 34.1538L15.5855 35.3183L15.2229 35.9889L15.2139 37.4572L15.7677 38.3774L15.5116 39.7529L15.6468 40.0539L15.4142 40.6903L15.4692 41.214L15.2689 41.7394L15.259 42.173L15.5765 42.7688L15.3303 44.0189L14.846 45.361L14.6133 47.4494L14.8595 48.0272L15.8272 48.6581L16.1077 48.8213L16.4693 49.043L17.7031 49.582L17.888 49.8028L18.2974 50.0498L18.9404 50.3175L19.9307 50.7321L20.801 51.4505L21.6334 52.0273L22.5037 52.9936L22.6146 53.6065L23.006 54.6241L24.0675 55.4236L24.6998 56.5764L25.1841 56.9838L25.3744 57.4498L25.3843 57.9257L26.2907 58.9217L26.738 60.2728L26.7659 60.9109L26.5188 61.203L26.4719 61.6527L26.342 61.9439L26.3285 62.6226L26.5928 63.3292L27.8166 64.0251L28.3568 64.4361L29.5707 65.0174L30.2868 65.6313L30.7567 65.9053L31.1851 66.31L31.7668 67.2032L32.6046 68.7995L33.5813 69.5178L34.8737 70.201L35.6051 70.8834L35.8748 71.1402L37.1311 72.4328L38.7959 74.2382L39.9828 74.934L40.9405 75.4766L41.8668 76.131L42.3087 76.3644L42.9607 76.3185L44.1981 76.9323L45.2443 77.4163L47.3799 78.0508L48.6831 78.762L49.897 79.5489L51.2047 80.023L53.3259 81.0514L54.7635 81.6823L55.6013 82.1862L56.8801 83.0082L57.4158 83.1659L58.1455 83.5688L58.7831 83.9248L59.3512 84.1358L60.0204 84.6324L60.4299 85.0398L60.8492 85.4157L61.4346 86.1232L62.0018 87.0579L62.5745 88.4721L62.9001 89.0499L62.8955 89.6384L62.836 90.5452L63.1182 90.9896L63.7423 91.1184L64.6081 91.8305L65.087 92.7553L65.4784 93.5079L66.1846 95.572L66.8177 95.7694L67.6691 95.6107L68.4925 95.5314L69.8002 96.0091L71.1494 96.8573L72.0377 96.933L73.4239 97.5576L73.9073 97.9542L74.5169 98.1128L75.0662 98.4517L75.4296 99.0007L75.3178 99.363L75.3124 99.7902L75.4666 100.462L76.0204 100.782L76.7049 100.594L77.1369 100.433L78.1415 100.537L79.5746 101.034L79.7613 101.204L101.421 86.7722C109.88 81.1364 114.622 77.9766 123.081 72.3408L122.172 71.4737L121.199 70.0514L120.398 68.886L120.217 68.4894L119.729 68.384L118.259 66.8472L117.914 66.2847L117.435 65.9071L116.831 65.1653L115.891 64.1603L115.225 63.3473L114.314 62.2368L113.327 60.7821L112.164 59.0001V58.6215L112.169 58.0997L111.555 57.411L111.243 57.3588L110.712 56.8035L110.033 55.9788L110.107 55.4488L109.916 55.2028L109.145 54.9567L109.001 54.4601L108.94 53.693L108.74 53.1702L108.414 53.0927L107.865 52.4266L107.348 52.1652L107.335 51.8462L106.971 51.7524L106.567 51.3694L106.017 51.0836L105.33 50.4653L104.367 49.6983L103.874 47.9632L103.162 47.7126L102.762 46.9988L102.078 46.7428L101.418 46.8347L100.97 46.7076L100.617 46.5138L99.9613 45.1537L99.9099 44.101L99.532 43.3601L98.7789 42.9626L98.034 43.032L96.8814 42.9914L95.9696 41.9576L95.5367 41.8043L95.0019 40.9508L94.5447 40.8633L93.08 40.9219L92.5822 40.6768L92.1547 40.2045L91.5631 40.0287L90.5115 39.2923L89.8045 38.4505L89.1344 38.327L88.348 38.3144L87.9719 37.8195L87.52 37.7564L86.4089 37.2706L85.691 36.3404L84.7017 35.9682L83.9189 35.3021L83.0206 34.5296L82.677 34.0285L82.3334 33.6022L81.9745 33.2218L81.7418 33.0226L80.7046 32.4088L80.039 31.9428L79.5836 31.4128L78.9135 31.036L78.2714 30.324L77.7555 29.849L77.485 29.5723L77.2108 29.2045L76.5831 28.3771L76.1737 27.9147L75.9121 27.3901L75.6569 27.0062L75.2474 26.5843L74.8425 25.5262L74.2743 25.1755L73.744 24.7898L72.9675 24.5383L72.4652 23.8686L72.1162 23.6739L71.7347 23.7757L70.6885 24.2814L70.1808 23.9668L69.3628 23.4999L68.6548 23.0312L67.7944 22.9564L67.0405 22.4995L66.5435 22.2777H65.9654L65.4965 21.9794L65.3891 21.3899L64.9662 21.4422L64.5982 21.6702L64.1887 21.4945L63.8767 21.1024L63.3744 19.9811L62.8116 19.7242L62.4166 19.7215L61.3235 20.4561L60.2151 20.4471L59.6668 20.7211L58.9633 21.407L58.0191 21.5467L56.8791 20.7716L56.2749 19.3502L56.0846 18.7481L55.796 18.2983L55.6327 18.1469L55.4794 17.9711L54.9437 17.5385L54.5541 17.2239L54.4044 17.0896L54.0887 16.8616L53.8741 16.4289L53.6504 15.9458L53.5206 15.4068L53.2834 15.2103V15.0255L53.0741 14.647L52.5763 14.3081L51.2733 13.7339L50.7809 13.706Z" fill="white" fill-opacity="0.8" stroke="#EB2363"/>
<path d="M187.793 149.564L187.733 149.588L187.672 149.623L187.593 149.708L187.518 149.792L187.486 149.896L187.5 149.996L187.542 150.083L187.621 150.164L187.662 150.224L187.752 150.23L187.836 150.236L187.928 150.224L187.984 150.178L188.007 150.126L188.035 150.062L188.058 149.99L188.105 149.932L188.179 149.897L188.203 149.85L188.151 149.838L188.198 149.78L188.166 149.722L188.12 149.674L188.026 149.659L187.943 149.581L187.872 149.564H187.793L187.793 149.564ZM201.657 163.54L201.21 163.601L200.736 163.752L200.192 164.044L199.787 164.108L199.2 164.232L198.726 164.196L198.666 164.278L198.475 164.419L198.247 164.5L197.883 164.681L197.596 164.808L197.135 164.886L196.083 165.119L195.023 165.44L194.032 165.633H193.385L192.608 165.586L191.872 165.616L191.264 165.529L190.854 165.33L190.561 165.108L190.501 165.045L190.371 164.921L190.119 164.804L189.757 164.791L189.338 164.856L189.022 165.009L188.733 165.33L188.328 165.768L187.895 166.083L187.57 166.328L187.077 166.568L186.816 166.778L186.663 166.971L186.802 167.106L186.992 167.247L187.211 167.309L187.313 167.251L187.412 167.281L187.652 167.718L187.606 168.093L187.472 168.59L187.294 169.174L186.914 169.723L186.494 170.051L186.369 170.039L186.178 170.044L185.904 170.407L185.793 170.839L185.616 171.125L185.373 171.576L185.35 171.979L185.16 172.301L184.601 172.774L184.173 173.001L183.955 173.042L183.76 173.252L183.625 173.333L183.508 173.544L183.248 173.814L182.898 174.362L182.685 174.446L182.526 174.866L182.28 175.134L182.103 175.268L182.322 175.432L182.489 175.613L182.69 175.735L182.904 175.917L182.81 176.689L182.536 177.254L182.239 177.524L182.099 177.933L181.982 178.055L181.833 178.347L182.062 178.54L182.127 178.75L182.052 179.067L181.894 179.399L181.535 179.791L180.782 180.557L180.567 180.907L180.252 181.31L179.554 182.227L179.27 182.636L179.033 182.888L178.53 183.659L177.684 185.372L177.39 185.978L177.074 186.867L176.749 187.709L176.496 188.468L176.278 188.923L176.107 189.385V189.52L176.037 189.794L176.045 190.068L175.91 190.513L175.678 191.028L175.478 192.102L175.423 192.312L175.241 193.212L175.143 194.134L175.063 194.638L175.017 195.176L175.063 195.759L175.042 196.292L175.017 196.678L174.924 196.741L174.943 197.255L174.887 197.869L174.878 198.464L174.786 198.856L174.986 199.282L175.036 199.563L175.008 199.826L175.014 200.1L175.111 200.317L175.367 201.538L175.403 202.058L175.418 202.97L175.567 203.781L175.818 204.886L175.91 205.828L175.925 206.855L175.832 207.048L175.705 207.082L175.594 207.165L175.478 207.211L175.403 207.317L175.32 207.399L175.153 207.726L175.111 208.024L174.66 208.555L174.646 208.789L174.553 209.052L174.543 209.373L174.584 211.109V212.588L173.84 212.615L173.849 212.739L174.376 212.709L174.497 213.581L174.533 213.649H174.608L174.683 213.756L174.706 214.335L174.603 215.263L174.547 215.504L174.473 215.818L174.217 216.35L173.939 216.604L173.883 216.654L173.79 216.63H173.649L173.557 216.736L173.468 216.724L173.347 216.772L172.836 216.665L172.473 216.624L172.403 216.677L172.3 216.75L172.226 216.809L172.095 216.859L172.184 216.999L172.357 217.139L172.403 217.309L172.305 217.553L172.463 217.648L172.538 217.793L172.584 217.974L172.725 218.243L172.892 218.558L172.999 218.943L172.979 219.352L172.868 219.599L172.878 219.75L173.11 219.931L173.301 220.171L173.416 220.346L173.566 220.381L173.766 220.556L173.877 220.727L174.031 220.808L174.491 220.942L174.994 221.305L175.246 221.632V221.924L175.296 222.205L175.292 222.303L175.618 222.812L175.883 223.186L176.079 223.555L176.055 223.76L175.967 224.273L176.107 224.373L175.967 224.495L176.218 225.045L176.427 225.851L176.631 226.4L177.074 226.738L177.502 227.06L177.619 227.3L177.591 227.481L177.725 227.719L177.861 227.96L177.994 228.136L178.321 228.398L178.372 228.655L178.344 228.946L178.525 229.017L178.702 229.327L178.73 229.567L178.757 229.618L178.967 229.811L179.159 230.103L179.484 230.641L179.749 231.272L179.763 231.546L179.6 232.225L179.711 233.276L179.452 233.697L178.451 234.387L178.39 234.323L178.312 234.405L177.776 233.994L177.698 234.095L178.34 234.614L179.168 234.03L179.246 234.012L179.34 233.99L179.609 233.949L179.916 233.973L180.15 234.037L180.262 234.2L180.638 234.264L181.029 234.387L181.457 234.668L181.67 234.942L181.689 235.427L181.624 235.742H181.782L182.015 235.841L182.276 235.924L182.769 236.012L183.211 236.269L183.508 236.577L183.597 236.91L183.57 237.086L183.68 237.245L183.918 237.426L184.048 237.46L184.229 237.508L184.397 237.635L184.61 238.004L184.853 238.26H185.071L185.429 238.454L185.774 238.745L185.9 239.102L186.021 239.407L186.161 239.446L186.407 239.534L186.594 239.711L186.63 240.026L186.685 240.281L186.89 240.242L187.211 240.399L187.426 240.716L187.528 241.304L187.51 241.592L187.518 241.808L187.728 241.977L188.096 242.117L188.249 242.276L188.603 242.619L189.049 242.79L189.58 242.661L189.868 242.695L190.003 242.812L190.105 243.046L190.663 243.438L190.742 243.561L190.887 243.73L191.031 243.717L191.213 243.649L191.297 243.654L191.468 243.601L191.617 243.513L191.822 243.473L192.324 243.671L192.855 243.963L193.11 244.18L193.376 244.273L193.818 244.116L194.246 244.216L194.809 244.449L194.943 244.436L194.99 244.28L195.199 244.337L195.409 244.396L195.511 244.273L195.632 244.203L195.777 244.233L195.926 244.18L196.051 244.126L196.159 244.152L196.507 244.098L196.703 243.888L196.776 243.713L197.005 243.717L197.176 243.59L197.275 243.391L197.386 243.081L197.53 242.97L197.79 243.023H198.21L198.76 243.086L199.07 243.098L199.34 242.994L199.689 243.112L199.977 243.122L200.27 243.204L200.48 243.286L200.667 243.163L200.829 243.005L200.959 242.97L201.327 242.772L201.518 242.538L201.578 242.211L201.812 242.076L201.996 241.906L202.173 241.644L202.531 241.399L202.877 240.995L203.612 240.498L204.137 240.243L204.537 240.411L204.864 240.534L205.016 240.459L205.095 240.264L205.43 239.973L205.718 239.663L206.113 239.348L206.514 239.266L206.863 239.307L207.091 239.29L207.324 239.16L207.575 239.148L207.951 239.29L208.246 239.348L209.036 238.951L209.314 238.606L209.547 238.372L209.775 238.121L210.092 237.904L210.395 237.893L210.766 237.946L210.86 237.951L211.176 237.833L211.446 237.816L212.143 237.625L212.507 237.583L212.716 237.63L213.195 237.687L213.586 237.713L214.061 237.571L214.405 237.529L214.693 237.396L215.2 237.011L215.674 236.975L215.879 237.047L216.168 236.9L216.396 236.707L216.544 236.485L216.986 236.24L217.601 235.725L217.973 235.567L218.647 235.31L219.294 235.182L219.913 235.093L220.355 235.135L220.64 235.058H220.894L221.393 235.018L221.806 235.135L222.37 235.31L222.802 235.45L223.124 235.643L223.533 235.672L223.784 235.567L224.09 235.45L224.328 235.52L224.547 235.661L225.891 235.567L226.092 235.468L226.482 234.691L226.775 234.199L227.125 233.821L227.612 233.47L228.004 233.155L228.39 233.125L228.613 232.873L228.897 232.535L228.943 232.388L229.372 231.812L229.66 231.483L229.789 231.143L229.832 230.852L229.897 230.642L230.004 230.425L230.199 230.308L230.559 230.209L230.725 230.034L230.777 229.817L230.716 229.649L230.483 229.456L230.503 229.292L230.465 228.848L230.595 228.346L230.934 227.644L231.2 227.113L231.418 226.587L231.512 226.312L231.437 226.077L231.405 225.617L231.512 225.512L231.921 225.184L232.029 224.799L232.085 224.46L232.057 224.191L232.042 223.741L232.149 223.011L232.19 222.567L232.265 222.07L232.349 221.533L232.614 221.077L232.828 220.873L233.223 220.767L233.428 220.656L233.745 220.481L233.865 220.217L233.978 219.716L233.885 219.189V218.769L234.014 218.495L234.354 218.354L234.596 218.144L234.694 217.582L234.61 216.818L234.666 216.21L234.749 215.994L234.819 215.771L234.978 215.48L234.981 215.216L235.001 214.976L234.991 214.809L234.744 214.539L234.698 214.336L234.429 214.102L234.232 213.866L234.256 213.498L234.381 212.991L234.623 212.709L235.108 212.435L235.223 212.207L235.247 211.897L235.242 211.704L235.154 211.623L235.112 211.326L235.066 211.015L235.177 210.753L235.545 210.034L235.893 209.53L236.028 209.216L236.052 208.812V208.357L235.927 207.907L235.771 207.48L235.587 207.03L235.307 206.68L235.07 206.504L234.944 206.301L234.814 205.949L234.698 205.552L234.563 205.114L234.386 204.728L234.27 204.495L234.224 204.301L234.283 204.138V203.969L234.19 203.561L234.181 203.343L234.083 203.005L234.037 202.66L234.102 202.373L234.093 202.094L234.014 201.678L233.902 201.293L233.925 201.036L234.14 200.768L234.176 200.55L234.13 200.211L234.214 200.026L234.255 199.709L234.242 199.575L234.386 199.072L234.345 198.814L234.451 198.53L234.549 198.178L234.526 197.414L234.391 196.893L234.033 196.46L233.656 195.718L233.455 195.525L233.087 194.609L233.069 194.468L232.897 193.832L232.878 193.528L232.883 193.188L232.66 191.909L232.553 191.003L232.544 190.669L232.614 190.455L232.67 190.261L232.567 189.864L232.535 189.559L232.585 189.203L232.529 188.999L232.553 188.742L232.702 188.555L232.837 188.27L232.902 187.972L232.897 187.684L232.939 187.457L232.99 187.217L232.962 186.96L232.86 186.773L232.46 186.586L232.064 186.352L231.915 186.107L231.901 185.675L231.99 185.465L232.158 185.225L232.223 184.851L232.218 184.283L232.134 183.875L232.186 183.559L232.227 183.326L232.171 183.173L232.134 182.982L232.012 182.807L231.608 182.566L231.315 182.414L231.041 182.121L230.925 181.853L230.808 181.631L230.752 181.351L230.641 181.333L230.43 181.099L230.166 180.814L229.971 180.725L229.897 180.587L229.674 180.353L229.421 180.141L229.342 179.996L229.032 179.679L228.71 179.411L228.64 179.317L228.244 179.131L227.929 178.92L227.752 178.615L227.57 178.166L227.365 177.821L227.273 177.53L227.226 177.155L227.124 176.775L227.003 176.524L226.751 176.226L226.495 175.992L226.248 175.899L225.908 175.94L225.541 175.7L225.244 175.291L225.272 174.806L225.384 174.216L225.449 173.948L225.356 173.837L225.36 173.709L225.3 173.556L225.202 173.457L225.151 173.305L225.095 173.3L224.974 173.184L224.821 172.978L224.616 172.86L224.095 172.774L223.927 172.785L223.569 172.698L222.964 172.516L222.783 172.4L222.7 172.365L222.355 172.125L222.164 172.014L222.038 171.966L221.982 172.001L221.648 172.008L221.057 172.096L220.852 172.166H220.466L219.954 172.273L219.303 172.353L219.033 172.306L218.75 172.177L218.433 171.92L218.274 171.832L218.056 171.856L217.851 172.118L217.577 172.242L217.07 172.09L216.697 171.698L216.47 171.336L216.335 170.804L216.343 170.554L216.293 170.39L216.195 170.273L215.795 170.227L215.39 170.026L215.115 169.928L214.809 169.566L214.627 169.168L214.581 168.655L214.251 168.327L213.999 167.977L213.898 167.602L213.883 167.468L213.762 167.415L213.468 167.334L212.631 166.426L212.338 165.633L212.26 165.553L212.147 165.633L211.334 165.184L211.207 165.077L211.161 165.096L210.925 165.013L210.366 164.745L209.868 164.441L209.84 164.348L209.668 164.477L209.123 164.062L208.974 163.985L208.691 163.805L208.482 163.74L208.435 163.676L208.328 163.63L208.091 163.576L207.97 163.612L207.779 163.67L207.738 163.77L207.485 163.828L206.834 163.98L206.742 163.951L206.727 164.097L206.276 164.243L205.844 164.218L205.477 164.36L204.932 164.593L204.038 164.588L203.657 164.506L203.374 164.389L203.234 164.325H203.146L202.806 164.126L202.359 163.809L202.108 163.624L201.657 163.54L201.657 163.54Z" fill="white" fill-opacity="0.8" stroke="#EB2363"/>
<path d="M123.081 72.3408L79.7612 101.204L80.3429 101.732L80.8299 101.992L81.5704 102.066L82.9142 101.7L83.6356 101.595L84.4455 101.73L85.2879 102.163L85.8091 103.022L86.3575 103.054L87.2972 102.812L88.0647 102.676L89.0144 102.973L89.3165 102.838L90.1634 102.7L90.9633 102.858L91.3123 102.769L91.8616 102.87L92.5127 102.693L93.1269 102.887L93.5363 103.009L94.192 102.837L94.8855 102.84L95.3698 102.993L95.8018 103.004L96.6162 103.283L96.8823 103.837L96.793 104.387L97.1609 104.659L97.8815 104.566L98.309 105.084L98.9412 105.063L129.443 84.7406L127.48 82.3746L124.493 74.5843L124.385 73.7353L124.046 73.0998L123.423 72.6672L123.081 72.3409V72.3408ZM178.318 135.372L153.838 151.683L153.769 151.99L153.673 152.329L153.784 152.305L153.896 152.333L154.05 152.329L154.151 152.393L154.273 152.468L154.352 152.556L154.411 152.673L154.389 152.848L154.352 152.93L154.421 152.983L154.511 152.966L154.491 153.129L154.445 153.244L154.501 153.374L154.483 153.497L154.575 153.573L154.668 153.643L154.682 153.777L154.761 153.87L154.85 154.047L154.92 154.106L154.993 154.204L155.049 154.374L155.072 154.536L155.119 154.73L155.069 155.141L153.891 157.325L154.23 157.606L154.309 157.656L154.501 157.864L154.682 158.124L154.821 158.235L154.914 158.352L154.98 158.534L155.171 158.481L155.295 158.522L155.412 158.603L155.44 158.691L155.389 158.823L155.348 158.966L155.351 159.142L155.459 159.194L155.464 159.334L155.482 159.468L155.617 159.503L155.747 159.523L155.891 159.456L156.013 159.527L156.436 159.435L156.669 159.45L156.822 159.567L156.994 159.683L156.999 159.819L157.082 159.855L157.133 159.777L157.223 159.743L157.358 159.777L157.469 159.819L157.566 159.784L157.664 159.877L157.767 159.923L157.859 159.887L157.99 159.901L158.079 159.796L158.19 159.778L158.334 159.713L158.367 159.573L158.525 159.375L158.87 159.114L159.037 158.972L159.329 158.831L159.586 158.597L159.739 158.418L159.883 158.259L159.925 157.919L159.921 157.663L159.86 157.441L159.79 157.207L159.706 157.096L159.637 156.92L159.567 156.814L159.419 156.634L159.307 156.54L159.26 156.442L159.265 156.349L159.344 156.191L159.432 156.087L159.526 156.067L159.585 155.933L159.534 155.758L159.498 155.547L159.475 155.186L159.478 154.993L159.548 154.917L159.651 154.799L159.674 154.707L159.605 154.613L159.706 154.566L159.693 154.466V154.153L159.571 153.818L159.548 153.602L159.54 153.386L159.432 153.227L159.367 153.053L159.335 152.832L159.316 152.439L159.363 152.16L159.376 151.966L159.484 151.633L159.548 151.423L159.73 151.218L159.901 151.061L160.219 150.815L160.507 150.607L160.93 150.315L161.363 150.044L161.637 149.87L162.968 149.718L163.713 149.77L163.82 149.839L163.992 150.038L164.135 150.301L164.219 150.505L164.289 150.745L164.35 150.811L164.438 151.061L164.522 151.299L164.555 151.447L164.527 151.558L164.652 151.569L164.811 151.586L164.946 151.605L165.206 151.739L165.448 151.92L165.546 151.991L165.773 152.489L165.987 152.857L166.168 153.177L166.514 153.316L167.072 153.072L167.509 152.547L167.351 152.167L167.499 151.431L167.835 150.384L168.654 149.473L168.993 149.379L169.379 149.578L169.584 149.391L169.76 148.923L171.342 147.942L172.738 147.778L173.515 148.047L173.524 148.439L173.665 148.661L173.905 149.627L174.11 150.115L175.022 150.267L175.882 150.338L176.645 150.016L177.078 149.612L177.408 148.521L177.19 148.223L177.139 147.603L176.665 147.311L176.185 146.663L175.618 146.727L175.296 145.587L175.506 144.512L176.055 143.811L177.484 143.04L178.535 142.723L178.968 142.169L179.256 141.742L179.647 141.338L180.145 140.865L180.442 140.451L180.261 140.166L180.043 139.439L179.828 139.254L179.894 139.032L180.084 138.868L180.005 138.752L179.359 138.488V137.29L178.716 135.941L178.381 135.397L178.318 135.372H178.318Z" fill="white" fill-opacity="0.8" stroke="#EB2363"/>
<path d="M129.443 84.7406L98.9424 105.063L99.5611 105.043L100.022 104.581L100.691 104.347L101.325 104.272L101.827 104.321L102.167 104.527L102.399 104.767L102.577 105.197L102.585 105.552L102.795 105.861L103.334 105.822L103.916 105.407L104.749 104.698L104.86 104.405L104.753 103.734L105.074 103.436L105.456 103.339L105.381 103.112L106.725 102.577L108.68 102.021L108.806 102.044L108.851 102.565L109.005 102.519L108.983 102.39L109.126 102.168L109.401 102.109L109.577 101.911L109.685 101.9L109.666 103.15L109.811 103.142V102.43L110.318 102.41L110.326 103.603L112.42 103.574L112.9 102.855L112.891 101.744L113.425 101.711L115.365 101.824L118.027 101.94L118.367 102.185L118.911 102.298L118.981 102.087L120.143 102.577L120.609 103.109L120.684 103.627L120.702 103.749L120.776 104.157L120.543 104.876L120.446 104.936L120.437 105.093L120.962 105.963L120.948 106.056L120.818 106.173L120.608 106.277L120.521 106.219L120.479 106.231V106.395L120.553 106.576L119.893 106.932L119.585 107.657L119.73 107.716L119.711 107.787L120.004 107.879L120.437 106.95L121.256 106.318L121.534 106.428L121.716 106.592L121.977 106.825L122.158 107.1L122.447 107.348L122.809 108.449L123.358 108.635L123.754 109.091L124.163 109.267L125.001 109.923L125.815 110.285L127.056 110.465L127.912 110.032L128.401 110.074L129.035 110.413L129.648 110.226L129.927 110.535L130.84 110.792L131.578 110.788L131.783 110.681L132.282 110.827L132.844 110.78L135.701 111.698L135.92 112.026L136.007 113.059L136.981 113.96L137.557 114.333L138.53 115.035L139.284 115.555L140.153 115.561L140.474 115.323L141.842 115.726L142.656 116.095L144.267 116.802L145.397 117.274L145.997 117.585L147.467 118.618L148.272 119.022L148.849 119.431L149.434 119.986L150.077 120.552L150.128 120.717L150.448 121.009L150.691 121.283L150.766 121.552L151.282 121.905L151.841 122.564L152.999 124.66L153.231 124.667L153.641 125.191L153.832 125.399L154.334 126.025L154.404 126.487L154.651 127.236L154.772 127.521L154.408 128.45L154.529 128.819L154.492 129.359L154.71 129.715L155.26 129.991L154.948 130.909L155.161 131.274L155.711 131.83L156.121 132.767L156.222 133.708L155.971 134.069L155.799 134.219L155.143 135.041L154.603 135.501L154.278 136.022L153.966 136.599L154.148 137.518L156.134 137.329L156.596 138.05L156.635 138.001L157.78 138.524L156.919 138.787L156.877 139.381L156.898 140.034L156.448 140.409L156.481 140.51L155.958 140.79L155.427 141.526L155.097 141.804L155.069 142.085L155.056 142.36L154.962 142.682L154.934 143.157L154.865 143.417L154.775 143.663L154.525 144.121L153.961 144.621L153.221 145.23L152.668 145.627L152.022 145.937L151.822 146.036L151.389 146.221L151.226 146.305L151.063 146.503L150.863 146.94L150.886 147.238L150.881 147.443L150.891 147.585L150.802 147.741L150.859 147.916L150.825 148.08L150.724 148.161L150.835 148.268L150.923 148.401L150.984 148.582L151.003 148.764L151.054 148.992L151.106 149.067L151.072 149.142L150.978 149.243L151.021 149.289L151.106 149.338L151.155 149.401L151.235 149.465L151.346 149.481L151.464 149.441L151.529 149.341L151.593 149.324L151.686 149.367L151.766 149.441L151.849 149.477L151.952 149.419L152.063 149.5L152.202 149.547L152.347 149.494L152.458 149.517L152.576 149.559L152.681 149.663L152.868 149.758L153.031 149.821L153.041 149.945L153.11 150.026L153.217 150.045L153.343 150.032L153.454 149.986L153.557 150.045L153.589 150.089L153.673 150.207L153.817 150.399L153.919 150.609L153.999 150.956L153.989 151.171L153.877 151.511L153.838 151.682L178.318 135.372L177.972 135.238L177.665 135.122L177.326 134.229L177.647 133.551L177.446 133.097L176.702 133.19L176.349 132.82L175.418 132.534L174.157 132.044L173.864 132.084L173.227 131.874L172.971 131.402L172.268 131.102L171.771 130.378L171.333 130.051L171.012 129.828L170.403 129.338L170.245 129.635L169.9 130.243L168.984 133.183L168.165 133.544L167.1 133.778L166.033 133.212L165.644 132.435L165.918 131.909L165.974 130.821L165.118 129.788L164.458 128.38L164.14 127.913L163.229 128.169L162.01 127.27L161.809 126.206L160.851 125.189L159.929 124.383L159.428 124.535L158.209 124.861L157.325 124.237L156.725 124.056L156.329 123.647L156.637 123.384L156.758 122.35L156.194 121.736L155.738 121.187L155.366 120.443L155.092 119.799L154.543 119.417L153.933 119.317L153.472 118.949L153.114 119.019L152.445 118.541L151.998 117.611L151.463 117.243L151.262 116.579L151.058 116.238L150.724 116.506L150.407 116.367L149.528 116.15L148.532 116.122L148.341 115.473L147.611 115.563L146.909 115.163L146.699 114.55L146.188 114.34L145.522 113.994L144.875 113.538L143.581 112.096L143.507 111.789L142.596 111.237L142.507 110.869L142.614 110.698L142.744 110.448L142.87 110.32L142.655 109.922L142.507 109.033L142.145 108.94L141.465 108.595L140.865 109.306L140.372 109.372L139.222 108.936L138.399 107.924L138.036 106.639L138.139 104.927L138.459 104.131L138.589 103.328L138.162 102.892L138.018 102.428L138.101 101.859L138.436 101.005L138.753 100.801L138.469 100.398L138.083 100.386L137.407 99.5657L137.008 99.0709L137.157 98.019L137.473 97.2772L137.668 96.5598L137.344 96.0802L136.905 96.2254L134.938 95.9856L133.607 94.9283L132.555 93.1581L132.216 91.0165L132.588 89.9962L133.086 89.2959L133.123 89.0624L132.496 88.3522L131.491 86.9731L130.416 85.9131L129.444 84.7405L129.443 84.7406Z" fill="white" fill-opacity="0.8" stroke="#EB2363"/>
</g>
</g>
<defs>
<filter id="filter0_f" x="0" y="0.937988" width="247.897" height="257.124" filterUnits="userSpaceOnUse" color-interpolation-filters="sRGB">
<feFlood flood-opacity="0" result="BackgroundImageFix"/>
<feBlend mode="normal" in="SourceGraphic" in2="BackgroundImageFix" result="shape"/>
<feGaussianBlur stdDeviation="5" result="effect1_foregroundBlur"/>
</filter>
<clipPath id="clip0">
<rect x="10" y="10.938" width="227.897" height="237.124" fill="white"/>
</clipPath>
<clipPath id="clip1">
<rect x="14.6133" y="13.706" width="221.439" height="230.743" fill="white"/>
</clipPath>
</defs>
</svg>
