<svg width="139" height="269" viewBox="0 0 139 269" fill="none" xmlns="http://www.w3.org/2000/svg">
<g opacity="0.9">
<g opacity="0.5" filter="url(#filter0_f)">
<path d="M69.6211 147.438L68.0961 159.221L63.5212 163.927L51.3333 160.794L42.946 146.664L33.0455 139.587L23.8957 137.24L17.1763 137.288L18.3677 132.093L21.6797 123.372L36.2265 102.261L41.6712 88.1786L52.0958 91.6813L62.7587 94.0402L67.3336 101.891L68.8586 114.461L69.6211 127.816V147.438Z" fill="#101010"/>
<path d="M96.9994 69.0096L94.009 93.2543L90.1966 108.969L84.0967 125.457L81.8092 142.733V156.076L74.9587 153.729L69.6213 147.439V127.816L68.8588 114.461L67.3339 101.892L62.7589 94.0406L52.096 91.6816L41.6714 88.179L56.4565 65.7571L59.6256 63.2313L65.5706 59.8716L68.5848 56.8574L70.0145 52.9854L78.7593 58.6922L83.3342 66.5434L96.9994 69.0096Z" fill="#101010"/>
<path d="M69.4309 186.278L66.5596 188.136L64.6415 193.426L57.1596 210.606L50.5236 223.818L46.3418 232.968L28.5544 226.034L18.368 213.751L16.438 210.463L27.7085 201.611L42.1839 194.546L62.7591 186.695L69.0377 183.168L69.4309 186.278Z" fill="#101010"/>
<path d="M129 92.4081L117.622 90.8951L106.197 91.6814L94.0088 93.254L96.9992 69.0093L98.5718 57.1192L101.622 46.9091L109.247 39.8322L118.015 34.2565L122.912 39.7131L124.592 47.5167L126.677 73.9535L129 92.4081Z" fill="#101010"/>
<path d="M129 92.4082L128.952 108.837L124.58 137.621L114.584 139.587L105.434 144.305L94.7714 140.373L81.8091 142.732L84.0965 125.457L90.1964 108.968L94.0089 93.2541L106.197 91.6815L117.622 90.8951L129 92.4082Z" fill="#101010"/>
<path d="M118.016 34.2566L109.247 39.8323L101.622 46.9091L98.5722 57.1193L96.9996 69.0093L83.3344 66.5432L78.7594 58.6919L70.0146 52.9852L72.3974 41.9053L74.8159 37.5687L89.6844 16.1356L98.2982 10.1191L110.045 14.003L107.329 24.8208L111.38 30.4323L118.016 34.2566Z" fill="#101010"/>
<path d="M77.8535 249.004L74.0291 243.762L46.3413 232.968L50.5231 223.818L57.1591 210.606L64.641 193.426L66.5591 188.136L69.4304 186.278L69.764 189.018L71.9085 197.167L75.9711 211.261L79.8193 220.733L80.6771 242.082L77.8535 249.004Z" fill="#101010"/>
<path d="M123.389 184.776L115.835 215.431L114.203 219.767L107.674 221.852L100.86 212.595L93.2466 203.969L81.0468 190.626L72.9097 180.999L79.5219 177.282L92.4841 180.416L109.247 185.122L123.389 184.776Z" fill="#101010"/>
<path d="M123.389 184.777L109.247 185.122L92.4843 180.416L79.522 177.283L81.8094 162.367V156.076V142.733L94.7717 140.374L105.435 144.305L114.584 139.587L124.58 137.622L121.626 157.125L123.389 184.777Z" fill="#101010"/>
<path d="M69.6213 147.438L74.9587 153.729L81.8092 156.076V162.367L79.5217 177.283L72.9095 181L69.0375 183.168L62.7589 186.695L42.1836 194.546L27.7083 201.611L16.4378 210.463L12.7207 206.364L10.3498 201.623L14.5792 191.818L15.2464 185.468L14.5792 173.125L13.6142 169.098L10.3498 161.961L10.0996 155.599L11.6842 148.963L17.1764 137.288L23.8959 137.24L33.0457 139.587L42.9461 146.664L51.3335 160.794L63.5214 163.927L68.0963 159.221L69.6213 147.438Z" fill="#101010"/>
<path d="M107.674 221.852L102.158 224.402L99.3346 230.418L93.8423 254.341L90.0537 257.975L85.1571 259L77.8539 249.004L80.6774 242.082L79.8196 220.733L75.9715 211.261L71.9088 197.167L69.7643 189.018L69.4308 186.278L69.0376 183.168L72.9096 181L81.0468 190.626L93.2466 203.97L100.86 212.595L107.674 221.852Z" fill="#101010"/>
</g>
<path d="M65.4853 142.471L64.0155 153.828L59.6059 158.364L47.8585 155.344L39.7743 141.724L30.2317 134.903L21.4126 132.641L14.936 132.687L16.0844 127.68L19.2767 119.275L33.2978 98.9263L38.5456 85.3531L48.5935 88.7292L58.871 91.0029L63.2805 98.5703L64.7504 110.685L65.4853 123.558V142.471Z" fill="white" fill-opacity="0.8" stroke="#EB2363" stroke-linecap="round" stroke-linejoin="round"/>
<path d="M91.8736 66.8765L88.9913 90.2449L85.3167 105.391L79.4373 121.284L77.2325 137.935V150.796L70.6296 148.534L65.4851 142.471V123.558L64.7502 110.685L63.2803 98.5702L58.8708 91.0028L48.5933 88.7291L38.5454 85.353L52.7961 63.7415L55.8507 61.3071L61.5808 58.0688L64.4861 55.1635L65.8641 51.4315L74.2928 56.932L78.7024 64.4994L91.8736 66.8765Z" fill="white" fill-opacity="0.8" stroke="#EB2363" stroke-linecap="round" stroke-linejoin="round"/>
<path d="M65.3016 179.906L62.5342 181.698L60.6854 186.796L53.4739 203.355L47.0777 216.09L43.0471 224.909L25.9026 218.226L16.0844 206.387L14.2241 203.217L25.0873 194.685L39.0394 187.876L58.871 180.308L64.9227 176.909L65.3016 179.906Z" fill="white" fill-opacity="0.8" stroke="#EB2363" stroke-linecap="round" stroke-linejoin="round"/>
<path d="M122.718 89.4298L111.751 87.9714L100.739 88.7293L88.9912 90.2451L91.8735 66.8767L93.3893 55.4164L96.329 45.5752L103.678 38.7542L112.13 33.38L116.85 38.6393L118.469 46.1609L120.478 71.6422L122.718 89.4298Z" fill="white" fill-opacity="0.8" stroke="#EB2363" stroke-linecap="round" stroke-linejoin="round"/>
<path d="M122.718 89.4296L122.672 105.265L118.457 133.009L108.823 134.903L100.004 139.451L89.7262 135.661L77.2324 137.935L79.4372 121.284L85.3166 105.391L88.9913 90.2449L100.739 88.7291L111.751 87.9712L122.718 89.4296Z" fill="white" fill-opacity="0.8" stroke="#EB2363" stroke-linecap="round" stroke-linejoin="round"/>
<path d="M112.13 33.3798L103.679 38.754L96.3293 45.575L93.3896 55.4162L91.8738 66.8765L78.7025 64.4994L74.293 56.932L65.8643 51.4315L68.1609 40.7521L70.492 36.5722L84.8231 15.9138L93.1255 10.1147L104.448 13.8583L101.83 24.2851L105.734 29.6937L112.13 33.3798Z" fill="white" fill-opacity="0.8" stroke="#EB2363" stroke-linecap="round" stroke-linejoin="round"/>
<path d="M73.4201 240.366L69.734 235.313L43.0469 224.909L47.0775 216.09L53.4737 203.355L60.6852 186.796L62.534 181.698L65.3014 179.906L65.6229 182.547L67.6899 190.402L71.6057 203.987L75.3148 213.116L76.1416 233.694L73.4201 240.366Z" fill="white" fill-opacity="0.8" stroke="#EB2363" stroke-linecap="round" stroke-linejoin="round"/>
<path d="M117.309 178.459L110.029 208.006L108.456 212.186L102.163 214.195L95.5945 205.273L88.2567 196.959L76.4978 184.098L68.6548 174.819L75.028 171.236L87.5218 174.256L103.679 178.792L117.309 178.459Z" fill="white" fill-opacity="0.8" stroke="#EB2363" stroke-linecap="round" stroke-linejoin="round"/>
<path d="M117.309 178.459L103.679 178.792L87.5216 174.256L75.0278 171.236L77.2326 156.859V150.796V137.935L89.7264 135.661L100.004 139.451L108.823 134.903L118.457 133.009L115.61 151.807L117.309 178.459Z" fill="white" fill-opacity="0.8" stroke="#EB2363" stroke-linecap="round" stroke-linejoin="round"/>
<path d="M65.4851 142.471L70.6296 148.534L77.2324 150.796V156.859L75.0277 171.236L68.6545 174.819L64.9224 176.909L58.8707 180.308L39.0391 187.876L25.087 194.685L14.2238 203.217L10.6411 199.267L8.35589 194.697L12.4324 185.246L13.0755 179.125L12.4324 167.229L11.5023 163.347L8.35589 156.469L8.11475 150.337L9.64202 143.941L14.9358 132.687L21.4124 132.641L30.2315 134.903L39.7741 141.724L47.8583 155.344L59.6056 158.364L64.0152 153.828L65.4851 142.471Z" fill="white" fill-opacity="0.8" stroke="#EB2363" stroke-linecap="round" stroke-linejoin="round"/>
<path d="M102.163 214.195L96.8458 216.653L94.1243 222.452L88.8305 245.51L85.1788 249.012L80.4592 250L73.42 240.365L76.1415 233.694L75.3147 213.116L71.6056 203.987L67.6898 190.402L65.6228 182.547L65.3013 179.906L64.9224 176.909L68.6544 174.819L76.4975 184.098L88.2563 196.959L95.5941 205.273L102.163 214.195Z" fill="white" fill-opacity="0.8" stroke="#EB2363" stroke-linecap="round" stroke-linejoin="round"/>
</g>
<defs>
<filter id="filter0_f" x="0.0996094" y="0.11911" width="138.9" height="268.881" filterUnits="userSpaceOnUse" color-interpolation-filters="sRGB">
<feFlood flood-opacity="0" result="BackgroundImageFix"/>
<feBlend mode="normal" in="SourceGraphic" in2="BackgroundImageFix" result="shape"/>
<feGaussianBlur stdDeviation="5" result="effect1_foregroundBlur"/>
</filter>
</defs>
</svg>
