<svg width="115" height="252" viewBox="0 0 115 252" fill="none" xmlns="http://www.w3.org/2000/svg">
<path d="M34.5499 38.0461L36.5863 39.052L36.8807 39.2851L37.1383 39.6163L36.9175 41.4318L36.8193 41.7262L36.6353 41.9348L35.7766 43.3945L35.3105 43.8729L34.9425 44.0815L34.5867 44.106L32.3419 43.922L31.888 44.0937L31.4096 44.0569L30.4283 43.6031L30.281 43.4068L30.416 43.002L30.7595 42.315L30.5509 40.4382L30.6368 39.8126L30.8576 39.5182L31.1888 39.3219L31.9739 38.6717L32.2192 38.6227L32.5136 38.684L33.0656 38.6595L33.36 38.5123L33.8753 38.0584L34.2065 37.948L34.5499 38.0461ZM36.2305 27.8646L36.6599 27.9382L36.7089 28.2203L36.6108 28.343L35.9729 28.3307L35.4332 28.7355L34.8321 29.0299L34.1206 29.2017L33.2742 29.263L33.495 29.4225L33.2742 29.7414L33.6667 30.5388L33.2128 31.1521L32.5136 31.2135L32.1456 30.3425L32.1211 29.631L31.9984 29.1894L31.6549 28.8214L31.0048 28.3307L30.2197 27.1286L30.0234 26.4171L30.0725 25.5093L30.3424 24.7733L30.7963 24.1968L31.3973 23.7674L32.8448 23.1418L33.3478 23.1296L33.8139 23.424L34.415 24.0986L35.3596 25.9141L35.7766 26.2085L35.3596 26.7606L35.1142 26.9078L35.3228 27.3984L35.6049 27.5824L35.9116 27.656L36.2305 27.8646ZM39.9474 22.0991L39.285 22.2341H38.733L38.4876 22.6021L38.2055 22.6266L38.1564 22.3077L39.3708 20.6762L39.837 20.2714L40.4503 20.0996L40.757 20.3082L40.9165 20.7988V21.3508L40.7938 21.7557L40.5117 21.9029L39.9474 22.0991ZM28.2815 16.7998L28.625 16.9593L29.0053 16.8734L29.4101 16.5913L29.3365 17.4868L28.944 17.8302L28.3183 17.8425L27.5823 17.7689L27.2266 17.2537L26.9567 16.7017L26.9444 16.1497L27.3493 15.659L28.2202 15.4382L28.7599 15.7571L28.7722 16.1987L28.0362 16.3582L28.2815 16.7998ZM4.7781 7.84496L4.20156 8.07803L3.62501 7.93083L3.19567 7.53828L2.93806 6.97401L3.45327 6.52013L4.15249 6.26252L4.8149 6.31159L5.23198 6.76547L5.19518 7.36655L4.7781 7.84496ZM2.43512 5.24437L2.25112 5.3425L1.72364 5.06036L1.42923 4.70462L1.3311 4.21395L1.35563 3.47793L1.53963 2.54564L1.57643 2.17764L1.49057 1.92003L1.15936 1.52749L1.12256 1.12268L2.25112 1.42935L2.48419 1.60109L2.65592 1.95683L2.79086 2.72965L2.93806 3.01179V3.22033L2.71726 3.62513L2.75406 3.87047L2.93806 4.17715L2.74179 4.27528L2.71726 4.87636L2.43512 5.24437Z" fill="white" fill-opacity="0.8" stroke="#EB2363"/>
<path d="M24.8469 93.0878L23.9269 93.4313L23.2645 93.4067L22.7983 93.1859L21.8783 92.4867L21.3877 92.2905L20.4554 92.0451L20.0383 91.7752L19.4863 90.8307L19.5967 89.9107L20.2346 89.2237L21.3018 88.9416L23.657 89.236L24.8469 89.6408L24.9573 90.2541L24.5648 91.3091L24.7979 92.315L24.8469 93.0878ZM24.0496 88.0829L23.5589 88.4632L22.7861 88.2424L22.6757 88.3773L22.3077 88.4754L21.8293 88.4018L21.4735 88.2792L20.7252 87.7762L22.3077 86.0957L22.9456 85.838H23.3994L23.4853 85.973L23.0192 86.0957V86.3287L23.3504 86.4269L23.4853 86.6109L23.4362 86.8317L23.24 87.0647L24.0128 87.4818L24.0496 88.0829ZM22.0255 66.3214L21.7189 66.4563L21.4367 66.4318L21.1791 66.2478L20.4431 65.4259L20.2836 65.0579L20.8724 65.2296L21.7311 65.892L22.3077 65.9902L22.0255 66.3214ZM10.8626 73.0314L11.709 73.0436L13.1933 72.8842L14.052 72.9087L14.4078 72.8719L14.6163 72.602L15.0457 71.9151L15.6099 71.3999L15.8553 71.0932L15.9534 70.6148L16.1374 66.812L16.0761 66.3704L15.8921 65.8307L16.2723 65.34L16.8734 64.9843L17.3273 64.8125L19.8298 65.0579V65.3032L19.2287 65.4136L18.9465 65.6958L18.8729 66.1374L18.9711 67.5726L18.8361 67.9283L18.4436 68.3699L18.9956 68.4313L19.2287 68.8361L19.3636 70.0137L19.9279 71.7065L20.0383 72.369L20.8479 71.7801L21.265 71.682L21.8783 71.9151L21.7189 72.553L22.3077 75.3253L22.1482 75.865L21.7557 76.1104L22.0991 76.6256L22.7861 76.9077L23.1418 77.2635L23.4608 78.0363L23.3749 78.6987L23.2277 79.263L23.0314 79.4592L22.7861 78.9808H22.5653L22.7861 80.1339L23.3749 81.8881L24.16 83.4951L24.9573 84.1943L25.2395 84.3415L25.3008 84.685L25.2149 85.0775L25.08 85.3596L24.8469 85.5682L24.0373 85.3596H22.7861L22.3077 85.5436L21.7557 85.973L20.4922 87.5064L19.9279 87.8744L19.2409 87.9848L18.8484 87.9234L18.2841 87.6167L17.9774 87.5064L16.714 87.3591L15.291 87.3959L14.0152 87.7272L13.1933 88.4754L13.5246 88.8189L13.2547 88.8557L12.5432 88.7208L12.1261 88.9906L11.8563 89.5795L11.6109 89.8861L10.9362 90.2173L10.1879 90.1437L9.47647 89.7635L8.88765 89.1624L9.30473 88.5122L9.317 87.6413L8.96126 86.9053L7.82043 86.3778L7.32975 85.8871L6.59374 84.685L6.238 83.6423L6.02946 83.3724L5.14624 82.5014L4.9009 81.7532L4.41022 81.1153L4.29982 80.7841L4.37342 80.4651L4.6801 79.7659L4.8641 78.76L5.30571 77.3493L5.42838 76.6256L5.40385 75.0309L5.21984 74.2335L4.42249 73.0682L4.22622 72.3935L4.09128 70.9583L3.76008 69.6457L3.78461 69.1673L4.09128 68.603L3.52701 68.4067L3.17126 67.8915L2.98726 67.2414L2.93819 66.5912L2.79099 65.9902L2.07951 64.9229L1.80964 64.3464L1.19629 61.7213L1.23309 61.157L1.47843 60.5927L1.58883 59.7708L1.5643 58.9489L1.35576 58.446L2.25124 56.5692L2.18991 55.7227L2.31258 55.3179L3.35527 54.9867L3.71101 54.6064L4.09128 54.9254L4.22622 55.2075L4.55743 56.1153L4.65556 56.3115L4.9377 56.471L5.10944 56.8268L5.23211 57.6241L5.36704 57.6854L6.13986 58.6913L6.43427 59.5255L6.63054 59.9303L7.30522 60.2615L8.66685 61.2919L8.33564 61.6354L8.49511 62.4327L9.09619 64.1133L9.41513 65.708L9.56234 67.4254L9.52553 67.8425L9.90581 68.235L10.0285 68.4803L10.4824 72.7492L10.8626 73.0314Z" fill="white" fill-opacity="0.8" stroke="#EB2363"/>
<path d="M111.513 250.84L111.243 251L110.924 250.693L110.494 250.497L109.648 250.276L108.63 249.786L108.176 249.43L108.115 248.608L108.36 247.725L108.753 247.124L109.182 247.001L110.041 246.854L110.936 246.817L111.574 247.013L112.249 247.541L112.776 247.847L113.193 248.191L113.524 248.841L113.181 249.736L112.948 250.166L112.617 250.509L112.249 250.693L111.513 250.84ZM98.4483 229.582L98.1294 229.913L97.4915 229.84L96.0686 229.422L95.5165 229.165L94.1426 227.521L93.8114 227.251L93.1368 227.214L92.8792 227.116L92.6706 226.503L92.0941 225.914L92.0082 225.644L90.8919 224L90.757 223.632L90.7202 223.105L90.757 222.197L90.941 221.339L91.309 220.958L91.5666 220.774V220.32L91.4317 219.498L91.7138 218.775L91.9591 218.529L92.3149 218.296L92.9896 218.1L94.2653 218.088L94.8173 217.806L95.3571 218.284L95.3939 218.762L95.1976 219.351L95.0627 220.124L95.5165 222.774L95.8109 223.277L96.5102 223.571L97.332 223.792L98.019 224.099L99.0985 224.687L99.6137 225.055L100.313 225.325L100.104 225.755L98.9267 227.251L98.7059 228.809L98.4483 229.582ZM89.837 197.406L91.1863 197.565L91.3335 197.43L91.7383 197.32L91.8733 197.393L91.8487 197.7L92.1431 197.872L92.4743 198.387L92.5479 198.632L92.1554 198.657L90.0455 199.234L90.8551 200.227L90.9532 200.571L91.174 200.632L92.2045 201.172L92.5479 201.417L93.5538 201.945L94.2653 202.57L94.6824 203.38L94.8173 204.435L94.5229 205.33L93.8605 205.772L93.1736 206.103L92.7687 206.704L92.1063 206.189L89.1623 204.594L88.7575 204.484L88.3527 204.668L88.0828 204.643L87.0401 204.337L86.7457 204.189L86.4022 203.858L85.5926 203.282L85.0283 202.999L83.2005 202.386L83.1392 201.785L83.6912 200.215V199.749L83.5685 199.344L83.36 198.988L83.0901 198.632L83.0288 198.375L83.2496 195.848L83.4459 195.112L83.8875 194.425L84.8934 193.689L86.2059 193.309L87.5553 193.345L88.6839 193.946L89.0273 194.498L89.1623 195.198V196.473L89.3463 197.111L89.837 197.406Z" fill="white" fill-opacity="0.8" stroke="#EB2363"/>
<path d="M62.0035 120.725L61.3166 120.737L60.8627 120.615L60.5806 120.222L60.1758 119.302L61.1449 119.094L61.5742 119.081L61.9667 119.302L62.3593 119.867L62.3715 120.382L62.0035 120.725ZM58.4584 119.18L57.8819 119.535L57.3421 119.523L57.109 119.204L57.4402 118.603L57.7592 117.303L58.1395 117.021L59.0349 116.935L58.7283 117.45L58.6915 118.664L58.4584 119.18ZM61.0713 113.058L59.9427 113.954L56.4221 114.089L55.9559 114.211L55.4775 114.432L55.0114 114.579L54.5943 114.42L54.2018 114.089L53.7602 113.819L53.3186 113.696L52.8892 113.831L52.0183 113.206L51.5644 113.12L51.0737 113.353L50.7548 112.936L49.6507 112.261L49.1355 111.832L48.6449 111.537L48.0683 111.304L47.7126 111.01L47.8966 110.519L47.4427 110.114L47.8843 109.648L48.6939 109.268L49.6753 109.047L50.166 108.691L50.4849 108.618H51.9692L52.6561 108.262L53.9074 106.986L54.3612 106.704L54.5207 106.508L55.0359 105.146L55.3303 104.999L56.0541 104.815L56.7165 105.539L57.244 106.692L57.8941 108.863L58.0291 109.918L58.6547 110.568L61.0345 111.832L61.2798 112.138L61.3289 112.641L61.0713 113.058ZM31.2013 105.894L31.8637 106.128L32.3666 106.594L32.7101 106.704L32.8328 106.569L32.5997 105.649L32.7347 105.6L33.0536 105.956L33.5197 106.704L33.4952 107.011L33.2376 107.403L33.2744 107.673L34.0349 108.029L34.4152 108.152L34.5134 107.955L34.8691 107.673L35.1022 108.458L35.2984 108.826L35.5438 109.108L35.9241 109.366L36.6969 109.587L37.1385 109.808L37.8868 110.519L38.3161 111.132L38.7945 111.378L39.6777 111.01L40.1193 111.218V111.476L39.8863 111.979L40.4873 112.641L41.9226 113.831L42.7813 113.684L43.2351 114.457L43.5173 116.174L42.8917 117.327L42.8303 117.965L43.3333 118.345L43.3701 117.683L43.505 117.241L43.7504 116.91L44.1061 116.579L44.4496 116.554L44.7072 116.984L44.928 117.536L45.161 117.904L44.376 118.713L43.6767 118.922L43.4805 119.167L43.3087 119.499L42.9653 119.891L42.7567 120.222V120.774L42.3765 120.971L41.849 120.983L41.6036 120.688L41.481 120.296L41.2479 119.989L40.9412 119.903L40.0703 119.744L39.8863 119.67L39.6777 119.364H39.1993L38.6964 119.449L38.402 119.425L37.7641 119.167L37.0281 119.437L36.3657 119.916L35.9731 120.271L36.4147 120.688L36.7091 120.737L36.3779 121.179L35.9854 121.339L35.1144 121.461L34.4152 122.16L33.9859 121.952H33.8141L33.7283 122.393H33.5197L33.2499 122.038L32.3421 121.731L31.9373 120.934L31.4834 120.566L31.0909 120.063L31.005 119.302H31.2381L31.3608 119.523L31.8392 119.879L32.1458 119.989L32.06 119.437L31.8637 118.738L31.5693 118.076L30.7474 116.972L30.6002 116.591L30.5511 116.076V115.254L30.4039 115.033L29.8642 114.8L29.7661 114.052L29.8029 111.93L29.9746 111.476L29.6189 109.808V108.986L29.5452 108.716L29.2386 108.618L28.9932 107.894L27.8033 106.017L27.1041 106.496L26.8956 106.238L26.3558 106.888L24.8347 107.906L24.0374 107.195L23.5958 107.011L23.24 107.195L23.0192 106.851L22.7862 105.784L22.5286 105.428L21.9888 104.913L21.8784 104.459L22.0134 103.637L23.0192 101.724L22.872 99.4421L22.8966 98.9882L23.0683 98.7061L23.24 98.2522L23.5835 98.1786L24.6017 97.4426L28.2572 98.8901L28.2204 100.104L30.2077 102.656L29.6189 103.87L30.0482 104.042L30.4039 104.275L30.5266 104.606L30.3058 105.048L31.2013 105.894Z" fill="white" fill-opacity="0.8" stroke="#EB2363"/>
<path d="M57.8942 101.724L57.1459 101.773L56.7533 101.54L56.5816 101.037L56.4712 99.6384L55.8701 97.553L55.5021 94.8911L54.7048 92.9529L54.4104 91.7262L54.3245 90.3768L54.4962 88.9416L55.3058 86.2429L55.4898 83.4828L56.2259 83.4215L56.4344 85.0284L56.5325 85.3596L56.7533 85.6786L57.1336 85.9362L57.195 86.4637L56.9373 88.5859L56.9864 89.1624L57.4403 90.2542V91.3091L57.5384 91.7875L58.3112 94.0201L58.5811 95.7865L58.7406 96.3018L59.1331 97.0868L59.2558 97.7002L59.3417 99.0741L59.2558 100.276L58.8264 101.196L57.8942 101.724ZM45.7376 83.949L44.9771 84.2188L41.5055 84.2066L40.7941 83.9735L39.6532 83.3969L39.4692 83.0167L39.7759 82.4156L43.8363 78.5392L44.56 78.2939L45.1243 78.1958L46.7435 77.5701L49.5772 77.0795L50.4359 77.2144L50.4604 77.5579L49.6876 78.2939L49.2582 78.8214L48.8166 79.5329L48.4732 80.3057L48.2278 81.655L47.9457 82.1089L45.7376 83.949ZM56.4957 80.1094L56.2995 81.1276L55.8701 80.9558H55.5144L54.7048 81.1276L54.901 80.3302L54.852 79.4593L54.4717 77.8278L54.6925 76.6256L54.6802 72.9333L54.3613 72.1482L53.5517 66.8243L53.6989 66.3827L53.6866 66.1987L53.4535 65.8798L53.3554 65.5608L53.4781 65.1438L53.7357 64.7757L54.0301 64.604L54.4349 64.8371L54.7906 65.4504L55.0482 66.1251L55.1464 66.5912L55.1954 67.3886L55.6002 69.3145L55.5757 70.3817L55.6002 70.7375L55.9928 71.866L56.0541 72.2586V73.4607L56.1645 73.7551L56.6307 74.3071L56.7411 74.6138L56.6307 76.9691L56.8147 77.472L56.7533 78.1222L56.5325 79.1035L56.4957 80.1094Z" fill="white" fill-opacity="0.8" stroke="#EB2363"/>
<path d="M61.3903 155.882L61.5498 156.103L62.1386 155.747L64.4203 155.367L64.96 155.453L65.4384 155.784L65.6224 156.631L65.7574 156.753L66.0395 156.815L66.2358 156.962L66.567 157.477L66.8369 158.127L67.0209 158.802L67.3275 159.366L67.9531 159.611L68.1494 159.967L68.4193 160.63L68.6278 160.838L68.9713 160.912L69.3025 160.85L69.7686 160.593L69.83 161.194L68.8364 163.218L68.5665 164.101L68.3212 164.53L67.8795 164.714L67.0209 164.886L66.7019 165.291L66.4566 165.365L66.0763 165.131L65.88 164.886L63.5248 165.463L63.2672 165.475L62.6906 165.131L62.4821 164.53L62.3349 164.42L61.9792 164.886L61.9546 164.604L61.8074 164.248L61.0223 164.101L60.6421 164.432L60.8506 163.218H60.6421L60.2986 163.659L59.7711 163.893L58.5812 164.175V163.954L59.1578 163.512L59.8938 163.291L60.4826 162.96L60.6421 162.236L60.3599 162.421L60.1391 162.433L59.9919 162.261L59.8815 161.525L59.7343 161.415L59.2559 161.292L58.7284 160.998L58.2868 160.936L57.882 161.047L57.4404 161.292L57.2073 161.55L56.7534 162.286L56.5326 162.494L56.1646 162.58L55.9438 162.445L55.8457 162.089L55.3795 161.783L55.4777 161.353L56.2996 159.611L56.6921 159.194L57.5508 158.569L57.8943 158.188L59.2191 156.213L60.09 155.477L61.0959 155.306L61.2677 155.526L61.3903 155.882ZM57.4527 156.606L57.1828 156.999L57.2687 155.919L58.2991 154.925L59.5135 154.496L60.1759 155.085L59.7588 155.232L59.0106 155.661L58.5689 155.784L57.7961 156.312L57.4527 156.606ZM62.7274 153.441L62.2 153.613L61.4639 153.122L61.0837 152.325L61.2431 151.356L61.6111 151.184L62.065 151.552L62.4576 152.214L62.7274 153.441ZM61.7706 139.997L61.4271 140.033L61.0837 139.862L61.2554 139.457L61.6479 139.052L61.9669 138.819L63.2672 138.181L63.7211 138.169L64.4939 138.365L64.2117 138.598L63.3653 139.077L62.8746 139.714L61.7706 139.997ZM69.327 134.575L68.959 134.783L68.4193 134.734L68.0758 134.587L67.9777 134.292L68.1494 133.814L68.1126 133.066L68.7382 132.538L69.5969 132.465L70.2103 133.103L69.327 134.575ZM56.5081 121.989L57.0969 122.7L57.6735 124L58.0047 124.295L58.1519 125.092L58.2991 125.657L58.5812 125.975L58.8388 125.939L59.3908 125.583L59.7098 125.509L60.2618 125.693L60.6421 125.975L60.9855 126.503L61.2063 127.043L61.5007 127.46L62.1018 127.644L62.3594 128.233L62.6661 128.637L63.2672 128.821L65.0214 128.76L65.7942 129.018L66.3462 129.79L65.9046 129.999L65.9904 130.465L66.1867 131.017L66.1131 131.459L65.7696 131.299L65.4384 131.459L63.672 130.453L63.1322 129.876L62.5802 129.606L61.9423 129.41L61.4394 129.324L60.0532 129.631L59.0719 130.208L58.1028 130.588L56.7412 130.269L56.3118 130.011L55.3305 129.042L55.1465 128.723L55.2201 127.754L55.1465 127.398L54.619 126.945L54.3491 126.626L54.3614 126.331L54.4963 125.914L54.5699 124.626L54.7049 124.086L55.3059 123.424L55.3795 122.995L55.3059 122.43L55.1465 121.903L55.4777 122.111L56.1769 121.903L56.5081 121.989Z" fill="white" fill-opacity="0.8" stroke="#EB2363"/>
</svg>
